<?xml version="1.0" encoding="UTF-8" standalone="no"?>
<svg width="928px" height="483px" viewBox="0 0 928 483" version="1.1" xmlns="http://www.w3.org/2000/svg" xmlns:xlink="http://www.w3.org/1999/xlink">
    <!-- Generator: Sketch 3.7.2 (28276) - http://www.bohemiancoding.com/sketch -->
    <title>Universal</title>
    <desc>Created with Sketch.</desc>
    <defs>
        <path d="M17.4881428,400 C7.83037292,400 0,392.07203 0,382.293886 L0,17.7061143 C0,7.92561643 7.83037292,0 17.4881428,0 L207.509532,0 C217.169627,0 225,7.92561643 225,17.7061143 L225,382.293886 C225,392.07203 217.169627,400 207.509532,400 L17.4881428,400 Z M17.4068526,52.9896762 L208.782763,52.9896762 L208.782763,336.195004 L17.4068526,336.195004 L17.4068526,52.9896762 Z" id="path-1"></path>
        <filter x="-50%" y="-50%" width="200%" height="200%" filterUnits="objectBoundingBox" id="filter-2">
            <feOffset dx="0" dy="5" in="SourceAlpha" result="shadowOffsetOuter1"></feOffset>
            <feGaussianBlur stdDeviation="2.5" in="shadowOffsetOuter1" result="shadowBlurOuter1"></feGaussianBlur>
            <feColorMatrix values="0 0 0 0 0   0 0 0 0 0   0 0 0 0 0  0 0 0 0.24 0" type="matrix" in="shadowBlurOuter1" result="shadowMatrixOuter1"></feColorMatrix>
            <feOffset dx="0" dy="0" in="SourceAlpha" result="shadowOffsetOuter2"></feOffset>
            <feGaussianBlur stdDeviation="2.5" in="shadowOffsetOuter2" result="shadowBlurOuter2"></feGaussianBlur>
            <feColorMatrix values="0 0 0 0 0   0 0 0 0 0   0 0 0 0 0  0 0 0 0.12 0" type="matrix" in="shadowBlurOuter2" result="shadowMatrixOuter2"></feColorMatrix>
            <feMerge>
                <feMergeNode in="shadowMatrixOuter1"></feMergeNode>
                <feMergeNode in="shadowMatrixOuter2"></feMergeNode>
            </feMerge>
        </filter>
        <radialGradient cx="50%" cy="0%" fx="50%" fy="0%" r="100%" id="radialGradient-3">
            <stop stop-color="#7FB3DF" offset="10%"></stop>
            <stop stop-color="#0F5B94" offset="90%"></stop>
        </radialGradient>
        <radialGradient cx="50%" cy="0%" fx="50%" fy="0%" r="100%" id="radialGradient-4">
            <stop stop-color="#F6F0EE" offset="0%"></stop>
            <stop stop-color="#DDDDDD" offset="100%"></stop>
        </radialGradient>
        <linearGradient x1="50%" y1="-11.6438439%" x2="50%" y2="9.80379748%" id="linearGradient-5">
            <stop stop-color="#F06B59" offset="0%"></stop>
            <stop stop-color="#DF2227" offset="100%"></stop>
        </linearGradient>
        <radialGradient cx="25.7817401%" cy="58.793366%" fx="25.7817401%" fy="58.793366%" r="61.880428%" id="radialGradient-6">
            <stop stop-color="#4CB749" offset="0%"></stop>
            <stop stop-color="#388B41" offset="100%"></stop>
        </radialGradient>
        <radialGradient cx="31.4310126%" cy="39.1874846%" fx="31.4310126%" fy="39.1874846%" r="78.0095086%" id="radialGradient-7">
            <stop stop-color="#FCD209" offset="0%"></stop>
            <stop stop-color="#F7C616" offset="78.681568%"></stop>
            <stop stop-color="#BC821E" offset="100%"></stop>
        </radialGradient>
        <rect id="path-8" x="0" y="0" width="144" height="359" rx="8.07975"></rect>
        <filter x="-50%" y="-50%" width="200%" height="200%" filterUnits="objectBoundingBox" id="filter-9">
            <feOffset dx="0" dy="5" in="SourceAlpha" result="shadowOffsetOuter1"></feOffset>
            <feGaussianBlur stdDeviation="2.5" in="shadowOffsetOuter1" result="shadowBlurOuter1"></feGaussianBlur>
            <feComposite in="shadowBlurOuter1" in2="SourceAlpha" operator="out" result="shadowBlurOuter1"></feComposite>
            <feColorMatrix values="0 0 0 0 0   0 0 0 0 0   0 0 0 0 0  0 0 0 0.23 0" type="matrix" in="shadowBlurOuter1"></feColorMatrix>
        </filter>
        <mask id="mask-10" maskContentUnits="userSpaceOnUse" maskUnits="objectBoundingBox" x="0" y="0" width="144" height="359" fill="white">
            <use xlink:href="#path-8"></use>
        </mask>
        <rect id="path-11" x="0" y="0" width="144" height="359" rx="8.07975"></rect>
        <filter x="-50%" y="-50%" width="200%" height="200%" filterUnits="objectBoundingBox" id="filter-12">
            <feOffset dx="0" dy="5" in="SourceAlpha" result="shadowOffsetOuter1"></feOffset>
            <feGaussianBlur stdDeviation="2.5" in="shadowOffsetOuter1" result="shadowBlurOuter1"></feGaussianBlur>
            <feComposite in="shadowBlurOuter1" in2="SourceAlpha" operator="out" result="shadowBlurOuter1"></feComposite>
            <feColorMatrix values="0 0 0 0 0   0 0 0 0 0   0 0 0 0 0  0 0 0 0.23 0" type="matrix" in="shadowBlurOuter1"></feColorMatrix>
        </filter>
        <mask id="mask-13" maskContentUnits="userSpaceOnUse" maskUnits="objectBoundingBox" x="0" y="0" width="144" height="359" fill="white">
            <use xlink:href="#path-11"></use>
        </mask>
        <rect id="path-14" x="0" y="0" width="168" height="420" rx="9.45"></rect>
        <filter x="-50%" y="-50%" width="200%" height="200%" filterUnits="objectBoundingBox" id="filter-15">
            <feMorphology radius="2.1" operator="dilate" in="SourceAlpha" result="shadowSpreadOuter1"></feMorphology>
            <feOffset dx="0" dy="5" in="shadowSpreadOuter1" result="shadowOffsetOuter1"></feOffset>
            <feGaussianBlur stdDeviation="2.5" in="shadowOffsetOuter1" result="shadowBlurOuter1"></feGaussianBlur>
            <feComposite in="shadowBlurOuter1" in2="SourceAlpha" operator="out" result="shadowBlurOuter1"></feComposite>
            <feColorMatrix values="0 0 0 0 0   0 0 0 0 0   0 0 0 0 0  0 0 0 0.23 0" type="matrix" in="shadowBlurOuter1"></feColorMatrix>
        </filter>
        <mask id="mask-16" maskContentUnits="userSpaceOnUse" maskUnits="objectBoundingBox" x="-2.1" y="-2.1" width="172.2" height="424.2">
            <rect x="-2.1" y="-2.1" width="172.2" height="424.2" fill="white"></rect>
            <use xlink:href="#path-14" fill="black"></use>
        </mask>
    </defs>
    <g id="Universal" stroke="none" stroke-width="1" fill="none" fill-rule="evenodd">
        <g>
            <g id="iphone" transform="translate(28.000000, 36.000000)">
                <g id="iPhone-Outline-Copy-2">
                    <use fill="black" fill-opacity="1" filter="url(#filter-2)" xlink:href="#path-1"></use>
                    <use fill="#ECEFF1" fill-rule="evenodd" xlink:href="#path-1"></use>
                </g>
                <path d="M133.449217,26.9964062 L90.3984404,26.9964062 C88.5408193,26.9964062 87.034263,25.4710722 87.034263,23.5902978 C87.034263,21.7095234 88.5408193,20.1865433 90.3984404,20.1865433 L133.449217,20.1865433 C135.306838,20.1865433 136.813394,21.7095234 136.813394,23.5902978 C136.813394,25.4710722 135.306838,26.9964062 133.449217,26.9964062 L133.449217,26.9964062 Z" id="speaker" fill="#FFFFFF"></path>
                <path d="M126.5625,366.666667 C126.5625,374.454876 120.266084,380.769231 112.5,380.769231 C104.733916,380.769231 98.4375,374.454876 98.4375,366.666667 C98.4375,358.878458 104.733916,352.564103 112.5,352.564103 C120.266084,352.564103 126.5625,358.878458 126.5625,366.666667 L126.5625,366.666667 Z" id="home-button" stroke="#FFFFFF" stroke-width="2.5"></path>
                <rect id="screen" fill="#FFFFFF" x="15" y="51" width="194.318182" height="287.179487"></rect>
                <g id="text" transform="translate(31.000000, 283.000000)" stroke-opacity="0.7" stroke="#E1E2E3" stroke-width="9" stroke-linecap="square">
                    <path d="M0,1.5 L166.689941,1.5" id="Line"></path>
                    <path d="M0,19.5 L166.689941,19.5" id="Line"></path>
                </g>
                <g id="boxes" transform="translate(25.000000, 67.000000)" fill-opacity="0.7">
                    <rect id="Rectangle-69" fill="#E1E2E3" x="0" y="0.00359380031" width="173" height="54.9964062" rx="4"></rect>
                    <rect id="Rectangle-70" fill="#E1E2E3" x="1" y="69" width="175" height="131" rx="4"></rect>
                    <rect id="Rectangle-69" fill="#E1E3E4" x="3" y="249" width="173" height="22.2099991" rx="4"></rect>
                </g>
            </g>
            <g id="chrome" transform="translate(84.000000, 182.000000)">
                <g id="Group">
                    <path d="M91.8125,66.7955556 C91.8124997,47.3796786 76.002555,31.6400005 56.5,31.6400005 C36.997445,31.6400005 21.1875003,47.3796786 21.1875,66.7955556 L31.2767857,66.7955556 C31.276786,52.927072 42.5696036,41.684445 56.5,41.684445 C70.4303964,41.684445 81.723214,52.927072 81.7232143,66.7955556" id="Shape" fill-opacity="0.1" fill="#000000"></path>
                    <ellipse id="Oval" stroke="url(#radialGradient-4)" stroke-width="4.536" fill="url(#radialGradient-3)" cx="56.2477679" cy="56.5502222" rx="22.7008929" ry="22.6"></ellipse>
                    <path d="M106.946429,31.64 C98.0065462,13.7326615 80.1890434,1.89695388 60.1480466,0.553041792 C40.1070499,-0.790870296 20.856162,8.55909974 9.58482143,25.1111111 L32.2857143,64.2844444 C29.8937431,56.7149475 31.2363413,48.4652621 35.906719,42.0349359 C40.5770967,35.6046097 48.0256396,31.7503695 55.9955357,31.64" id="Shape" fill="url(#linearGradient-5)"></path>
                    <path d="M9.58482143,25.1111111 C-1.57775838,41.6885103 -3.08115274,62.9132698 5.6341564,80.886174 C14.3494655,98.8590782 31.9783314,110.888624 51.9598214,112.497778 L75.6696429,72.32 C69.8330752,79.3631071 60.61638,82.697168 51.5996906,81.0271001 C42.5830012,79.3570321 35.1874306,72.9460534 32.2857143,64.2844444" id="Shape" fill="url(#radialGradient-6)"></path>
                    <path d="M51.9598214,112.497778 C72.1668335,114.018659 91.6444387,104.649285 103.005235,87.9432388 C114.366032,71.2371932 115.869889,49.7533384 106.946429,31.64 L55.9955357,31.64 C65.6432199,31.6841199 74.4204715,37.2032168 78.6058317,45.857254 C82.791192,54.5112911 81.6513719,64.7840527 75.6696429,72.32" id="Shape" fill="url(#radialGradient-7)"></path>
                    <path d="M9.58482143,25.1111111 L32.2857143,64.2844444 C30.6044278,58.6504381 30.9614639,52.6077997 33.2946429,47.2088889 L10.59375,23.6044444" id="Shape" fill="#000000" opacity="0.075"></path>
                    <path d="M51.9598214,112.497778 L75.6696429,72.32 C71.9290367,76.7615143 66.7602656,79.778017 61.0401786,80.8577778 L50.9508929,112.497778" id="Shape" fill="#000000" opacity="0.05"></path>
                    <path d="M106.946429,31.64 L55.9955357,31.64 C63.6702527,31.6752252 70.9113493,35.1872602 75.6696429,41.1822222 L107.955357,33.1466667" id="Shape" fill="#000000" opacity="0.05"></path>
                </g>
            </g>
            <g id="arrow" transform="translate(295.000000, 134.000000)" fill="#ECEFF1">
                <path d="M146.687746,30 L5.5,30 L0.5,30 L0.5,20 L5.5,20 L147.036953,20 L147.717959,0.498543705 L181.922217,27.2712402 L146.04987,48.2663728 L146.687746,30 Z" id="Combined-Shape"></path>
            </g>
            <g id="arrow" transform="translate(386.000000, 265.500000) scale(-1, 1) translate(-386.000000, -265.500000) translate(295.000000, 241.000000)" fill="#ECEFF1">
                <path d="M146.687746,30 L5.5,30 L0.5,30 L0.5,20 L5.5,20 L147.036953,20 L147.717959,0.498543705 L181.922217,27.2712402 L146.04987,48.2663728 L146.687746,30 Z" id="Combined-Shape"></path>
            </g>
            <g id="arrow" transform="translate(386.000000, 335.500000) scale(-1, 1) translate(-386.000000, -335.500000) translate(295.000000, 311.000000)" fill="#ECEFF1">
                <path d="M146.687746,30 L5.5,30 L0.5,30 L0.5,20 L5.5,20 L147.036953,20 L147.717959,0.498543705 L181.922217,27.2712402 L146.04987,48.2663728 L146.687746,30 Z" id="Combined-Shape"></path>
            </g>
            <g id="server" transform="translate(513.000000, 64.000000)">
                <g id="server-main">
                    <use fill="black" fill-opacity="1" filter="url(#filter-9)" xlink:href="#path-8"></use>
                    <use stroke="#ECEFF1" mask="url(#mask-10)" stroke-width="1.7955" fill="#FFFFFF" fill-rule="evenodd" xlink:href="#path-8"></use>
                </g>
                <g transform="translate(9.900000, 43.080000)">
                    <rect id="Rectangle-19" fill="#ECEFF1" x="0" y="0" width="126" height="27.8225" rx="7.271775"></rect>
                    <ellipse id="Oval-2" fill="#FFFFFF" cx="15.3461538" cy="13.91125" rx="4.03846154" ry="4.09154412"></ellipse>
                    <rect id="Rectangle-20" fill="#FFFFFF" x="52.5" y="11.4563235" width="64.6153846" height="4.90985294" rx="7.271775"></rect>
                </g>
                <g transform="translate(9.900000, 78.082500)">
                    <rect id="Rectangle-19" fill="#ECEFF1" x="0" y="0" width="126" height="27.8225" rx="7.271775"></rect>
                    <ellipse id="Oval-2" fill="#FFFFFF" cx="15.3461538" cy="13.91125" rx="4.03846154" ry="4.09154412"></ellipse>
                    <rect id="Rectangle-20" fill="#FFFFFF" x="52.5" y="11.4563235" width="64.6153846" height="4.90985294" rx="7.271775"></rect>
                </g>
                <g transform="translate(9.900000, 218.092500)">
                    <rect id="Rectangle-19" fill="#ECEFF1" x="0" y="0" width="126" height="27.8225" rx="7.271775"></rect>
                    <ellipse id="Oval-2" fill="#FFFFFF" cx="15.3461538" cy="13.91125" rx="4.03846154" ry="4.09154412"></ellipse>
                    <rect id="Rectangle-20" fill="#FFFFFF" x="52.5" y="11.4563235" width="64.6153846" height="4.90985294" rx="7.271775"></rect>
                </g>
                <g transform="translate(9.900000, 183.189722)">
                    <rect id="Rectangle-19" fill="#ECEFF1" x="0" y="0" width="126" height="27.8225" rx="7.271775"></rect>
                    <ellipse id="Oval-2" fill="#FFFFFF" cx="15.3461538" cy="13.91125" rx="4.03846154" ry="4.09154412"></ellipse>
                    <rect id="Rectangle-20" fill="#FFFFFF" x="52.5" y="11.4563235" width="64.6153846" height="4.90985294" rx="7.271775"></rect>
                </g>
                <g transform="translate(9.900000, 148.286944)">
                    <rect id="Rectangle-19" fill="#ECEFF1" x="0" y="0" width="126" height="27.8225" rx="7.271775"></rect>
                    <ellipse id="Oval-2" fill="#FFFFFF" cx="15.3461538" cy="13.91125" rx="4.03846154" ry="4.09154412"></ellipse>
                    <rect id="Rectangle-20" fill="#FFFFFF" x="52.5" y="11.4563235" width="64.6153846" height="4.90985294" rx="7.271775"></rect>
                </g>
                <g transform="translate(9.900000, 113.384167)">
                    <rect id="Rectangle-19" fill="#ECEFF1" x="0" y="0" width="126" height="27.8225" rx="7.271775"></rect>
                    <ellipse id="Oval-2" fill="#FFFFFF" cx="15.3461538" cy="13.91125" rx="4.03846154" ry="4.09154412"></ellipse>
                    <rect id="Rectangle-20" fill="#FFFFFF" x="52.5" y="11.4563235" width="64.6153846" height="4.90985294" rx="7.271775"></rect>
                </g>
                <g transform="translate(9.900000, 253.095000)">
                    <rect id="Rectangle-19" fill="#ECEFF1" x="0" y="0" width="126" height="27.8225" rx="7.271775"></rect>
                    <ellipse id="Oval-2" fill="#FFFFFF" cx="15.3461538" cy="13.91125" rx="4.03846154" ry="4.09154412"></ellipse>
                    <rect id="Rectangle-20" fill="#FFFFFF" x="52.5" y="11.4563235" width="64.6153846" height="4.90985294" rx="7.271775"></rect>
                </g>
                <g transform="translate(9.900000, 288.097500)">
                    <rect id="Rectangle-19" fill="#ECEFF1" x="0" y="0" width="126" height="27.8225" rx="7.271775"></rect>
                    <ellipse id="Oval-2" fill="#FFFFFF" cx="15.3461538" cy="13.91125" rx="4.03846154" ry="4.09154412"></ellipse>
                    <rect id="Rectangle-20" fill="#FFFFFF" x="52.5" y="11.4563235" width="64.6153846" height="4.90985294" rx="7.271775"></rect>
                </g>
                <g transform="translate(9.900000, 323.100000)">
                    <rect id="Rectangle-19" fill="#ECEFF1" x="0" y="0" width="126" height="27.8225" rx="7.271775"></rect>
                    <ellipse id="Oval-2" fill="#FFFFFF" cx="15.3461538" cy="13.91125" rx="4.03846154" ry="4.09154412"></ellipse>
                    <rect id="Rectangle-20" fill="#FFFFFF" x="52.5" y="11.4563235" width="64.6153846" height="4.90985294" rx="7.271775"></rect>
                </g>
                <g transform="translate(9.000000, 8.975000)">
                    <rect id="Rectangle-19" fill="#ECEFF1" x="0" y="0" width="126" height="27.8225" rx="7.271775"></rect>
                    <ellipse id="Oval-2" fill="#FFFFFF" cx="15.3461538" cy="13.91125" rx="4.03846154" ry="4.09154412"></ellipse>
                    <rect id="Rectangle-20" fill="#FFFFFF" x="52.5" y="11.4563235" width="64.6153846" height="4.90985294" rx="7.271775"></rect>
                </g>
            </g>
            <g id="server" transform="translate(759.000000, 64.000000)">
                <g id="server-main">
                    <use fill="black" fill-opacity="1" filter="url(#filter-12)" xlink:href="#path-11"></use>
                    <use stroke="#ECEFF1" mask="url(#mask-13)" stroke-width="1.7955" fill="#FFFFFF" fill-rule="evenodd" xlink:href="#path-11"></use>
                </g>
                <g transform="translate(9.900000, 43.080000)">
                    <rect id="Rectangle-19" fill="#ECEFF1" x="0" y="0" width="126" height="27.8225" rx="7.271775"></rect>
                    <ellipse id="Oval-2" fill="#FFFFFF" cx="15.3461538" cy="13.91125" rx="4.03846154" ry="4.09154412"></ellipse>
                    <rect id="Rectangle-20" fill="#FFFFFF" x="52.5" y="11.4563235" width="64.6153846" height="4.90985294" rx="7.271775"></rect>
                </g>
                <g transform="translate(9.900000, 78.082500)">
                    <rect id="Rectangle-19" fill="#ECEFF1" x="0" y="0" width="126" height="27.8225" rx="7.271775"></rect>
                    <ellipse id="Oval-2" fill="#FFFFFF" cx="15.3461538" cy="13.91125" rx="4.03846154" ry="4.09154412"></ellipse>
                    <rect id="Rectangle-20" fill="#FFFFFF" x="52.5" y="11.4563235" width="64.6153846" height="4.90985294" rx="7.271775"></rect>
                </g>
                <g transform="translate(9.900000, 218.092500)">
                    <rect id="Rectangle-19" fill="#ECEFF1" x="0" y="0" width="126" height="27.8225" rx="7.271775"></rect>
                    <ellipse id="Oval-2" fill="#FFFFFF" cx="15.3461538" cy="13.91125" rx="4.03846154" ry="4.09154412"></ellipse>
                    <rect id="Rectangle-20" fill="#FFFFFF" x="52.5" y="11.4563235" width="64.6153846" height="4.90985294" rx="7.271775"></rect>
                </g>
                <g transform="translate(9.900000, 183.189722)">
                    <rect id="Rectangle-19" fill="#ECEFF1" x="0" y="0" width="126" height="27.8225" rx="7.271775"></rect>
                    <ellipse id="Oval-2" fill="#FFFFFF" cx="15.3461538" cy="13.91125" rx="4.03846154" ry="4.09154412"></ellipse>
                    <rect id="Rectangle-20" fill="#FFFFFF" x="52.5" y="11.4563235" width="64.6153846" height="4.90985294" rx="7.271775"></rect>
                </g>
                <g transform="translate(9.900000, 148.286944)">
                    <rect id="Rectangle-19" fill="#ECEFF1" x="0" y="0" width="126" height="27.8225" rx="7.271775"></rect>
                    <ellipse id="Oval-2" fill="#FFFFFF" cx="15.3461538" cy="13.91125" rx="4.03846154" ry="4.09154412"></ellipse>
                    <rect id="Rectangle-20" fill="#FFFFFF" x="52.5" y="11.4563235" width="64.6153846" height="4.90985294" rx="7.271775"></rect>
                </g>
                <g transform="translate(9.900000, 113.384167)">
                    <rect id="Rectangle-19" fill="#ECEFF1" x="0" y="0" width="126" height="27.8225" rx="7.271775"></rect>
                    <ellipse id="Oval-2" fill="#FFFFFF" cx="15.3461538" cy="13.91125" rx="4.03846154" ry="4.09154412"></ellipse>
                    <rect id="Rectangle-20" fill="#FFFFFF" x="52.5" y="11.4563235" width="64.6153846" height="4.90985294" rx="7.271775"></rect>
                </g>
                <g transform="translate(9.900000, 253.095000)">
                    <rect id="Rectangle-19" fill="#ECEFF1" x="0" y="0" width="126" height="27.8225" rx="7.271775"></rect>
                    <ellipse id="Oval-2" fill="#FFFFFF" cx="15.3461538" cy="13.91125" rx="4.03846154" ry="4.09154412"></ellipse>
                    <rect id="Rectangle-20" fill="#FFFFFF" x="52.5" y="11.4563235" width="64.6153846" height="4.90985294" rx="7.271775"></rect>
                </g>
                <g transform="translate(9.900000, 288.097500)">
                    <rect id="Rectangle-19" fill="#ECEFF1" x="0" y="0" width="126" height="27.8225" rx="7.271775"></rect>
                    <ellipse id="Oval-2" fill="#FFFFFF" cx="15.3461538" cy="13.91125" rx="4.03846154" ry="4.09154412"></ellipse>
                    <rect id="Rectangle-20" fill="#FFFFFF" x="52.5" y="11.4563235" width="64.6153846" height="4.90985294" rx="7.271775"></rect>
                </g>
                <g transform="translate(9.900000, 323.100000)">
                    <rect id="Rectangle-19" fill="#ECEFF1" x="0" y="0" width="126" height="27.8225" rx="7.271775"></rect>
                    <ellipse id="Oval-2" fill="#FFFFFF" cx="15.3461538" cy="13.91125" rx="4.03846154" ry="4.09154412"></ellipse>
                    <rect id="Rectangle-20" fill="#FFFFFF" x="52.5" y="11.4563235" width="64.6153846" height="4.90985294" rx="7.271775"></rect>
                </g>
                <g transform="translate(9.000000, 8.975000)">
                    <rect id="Rectangle-19" fill="#ECEFF1" x="0" y="0" width="126" height="27.8225" rx="7.271775"></rect>
                    <ellipse id="Oval-2" fill="#FFFFFF" cx="15.3461538" cy="13.91125" rx="4.03846154" ry="4.09154412"></ellipse>
                    <rect id="Rectangle-20" fill="#FFFFFF" x="52.5" y="11.4563235" width="64.6153846" height="4.90985294" rx="7.271775"></rect>
                </g>
            </g>
            <g id="server" transform="translate(620.000000, 31.000000)">
                <g id="server-main">
                    <use fill="black" fill-opacity="1" filter="url(#filter-15)" xlink:href="#path-14"></use>
                    <use fill="#FFFFFF" fill-rule="evenodd" xlink:href="#path-14"></use>
                    <use stroke="#ECEFF1" mask="url(#mask-16)" stroke-width="4.2" xlink:href="#path-14"></use>
                </g>
                <g transform="translate(11.550000, 50.400000)">
                    <rect id="Rectangle-19" fill="#ECEFF1" x="0" y="0" width="147" height="32.55" rx="8.505"></rect>
                    <ellipse id="Oval-2" fill="#FFFFFF" cx="17.9038462" cy="16.275" rx="4.71153846" ry="4.78676471"></ellipse>
                    <rect id="Rectangle-20" fill="#FFFFFF" x="61.25" y="13.4029412" width="75.3846154" height="5.74411765" rx="8.505"></rect>
                </g>
                <g transform="translate(11.550000, 91.350000)">
                    <rect id="Rectangle-19" fill="#ECEFF1" x="0" y="0" width="147" height="32.55" rx="8.505"></rect>
                    <ellipse id="Oval-2" fill="#FFFFFF" cx="17.9038462" cy="16.275" rx="4.71153846" ry="4.78676471"></ellipse>
                    <rect id="Rectangle-20" fill="#FFFFFF" x="61.25" y="13.4029412" width="75.3846154" height="5.74411765" rx="8.505"></rect>
                </g>
                <g id="server-" transform="translate(11.550000, 131.250000)" fill="#ECEFF1">
                    <rect id="Rectangle-19" x="0" y="0" width="147" height="115.5" rx="8.505"></rect>
                </g>
                <g transform="translate(11.550000, 255.150000)">
                    <rect id="Rectangle-19" fill="#ECEFF1" x="0" y="0" width="147" height="32.55" rx="8.505"></rect>
                    <ellipse id="Oval-2" fill="#FFFFFF" cx="17.9038462" cy="16.275" rx="4.71153846" ry="4.78676471"></ellipse>
                    <rect id="Rectangle-20" fill="#FFFFFF" x="61.25" y="13.4029412" width="75.3846154" height="5.74411765" rx="8.505"></rect>
                </g>
                <g transform="translate(11.550000, 296.100000)">
                    <rect id="Rectangle-19" fill="#ECEFF1" x="0" y="0" width="147" height="32.55" rx="8.505"></rect>
                    <ellipse id="Oval-2" fill="#FFFFFF" cx="17.9038462" cy="16.275" rx="4.71153846" ry="4.78676471"></ellipse>
                    <rect id="Rectangle-20" fill="#FFFFFF" x="61.25" y="13.4029412" width="75.3846154" height="5.74411765" rx="8.505"></rect>
                </g>
                <g id="angular" transform="translate(42.000000, 142.800000)">
                    <g id="Layer_1">
                        <g id="Group">
                            <polygon id="Shape" fill="#DD0031" points="43.05 0 43.05 0 43.05 0 0.412180851 15.3384 6.91547872 72.2106 43.05 92.4 43.05 92.4 43.05 92.4 79.1845213 72.2106 85.6878191 15.3384"></polygon>
                            <polygon id="Shape" fill="#C3002F" points="43.05 0 43.05 10.2564 43.05 10.2102 43.05 57.0108 43.05 57.0108 43.05 92.4 43.05 92.4 79.1845213 72.2106 85.6878191 15.3384"></polygon>
                            <path d="M43.05,10.2102 L16.3956383,70.5012 L16.3956383,70.5012 L26.3337766,70.5012 L26.3337766,70.5012 L31.6921277,57.0108 L54.3162766,57.0108 L59.6746277,70.5012 L59.6746277,70.5012 L69.612766,70.5012 L69.612766,70.5012 L43.05,10.2102 L43.05,10.2102 L43.05,10.2102 L43.05,10.2102 L43.05,10.2102 L43.05,10.2102 Z M50.8356383,48.6948 L35.2643617,48.6948 L43.05,29.799 L50.8356383,48.6948 L50.8356383,48.6948 Z" id="Shape" fill="#FFFFFF"></path>
                        </g>
                    </g>
                </g>
                <g transform="translate(11.550000, 337.050000)">
                    <rect id="Rectangle-19" fill="#ECEFF1" x="0" y="0" width="147" height="32.55" rx="8.505"></rect>
                    <ellipse id="Oval-2" fill="#FFFFFF" cx="17.9038462" cy="16.275" rx="4.71153846" ry="4.78676471"></ellipse>
                    <rect id="Rectangle-20" fill="#FFFFFF" x="61.25" y="13.4029412" width="75.3846154" height="5.74411765" rx="8.505"></rect>
                </g>
                <g transform="translate(11.550000, 378.000000)">
                    <rect id="Rectangle-19" fill="#ECEFF1" x="0" y="0" width="147" height="32.55" rx="8.505"></rect>
                    <ellipse id="Oval-2" fill="#FFFFFF" cx="17.9038462" cy="16.275" rx="4.71153846" ry="4.78676471"></ellipse>
                    <rect id="Rectangle-20" fill="#FFFFFF" x="61.25" y="13.4029412" width="75.3846154" height="5.74411765" rx="8.505"></rect>
                </g>
                <g transform="translate(10.500000, 10.500000)">
                    <rect id="Rectangle-19" fill="#ECEFF1" x="0" y="0" width="147" height="32.55" rx="8.505"></rect>
                    <ellipse id="Oval-2" fill="#FFFFFF" cx="17.9038462" cy="16.275" rx="4.71153846" ry="4.78676471"></ellipse>
                    <rect id="Rectangle-20" fill="#FFFFFF" x="61.25" y="13.4029412" width="75.3846154" height="5.74411765" rx="8.505"></rect>
                </g>
            </g>
        </g>
    </g>
</svg>