<?xml version="1.0" encoding="UTF-8" standalone="no"?>
<svg width="356px" height="227px" viewBox="0 0 356 227" version="1.1" xmlns="http://www.w3.org/2000/svg" xmlns:xlink="http://www.w3.org/1999/xlink">
    <!-- Generator: Sketch 3.7.2 (28276) - http://www.bohemiancoding.com/sketch -->
    <title>CLI Copy 2</title>
    <desc>Created with Sketch.</desc>
    <defs>
        <rect id="path-1" x="6" y="29" width="344" height="184" rx="4"></rect>
        <filter x="-50%" y="-50%" width="200%" height="200%" filterUnits="objectBoundingBox" id="filter-2">
            <feOffset dx="0" dy="5" in="SourceAlpha" result="shadowOffsetOuter1"></feOffset>
            <feGaussianBlur stdDeviation="2.5" in="shadowOffsetOuter1" result="shadowBlurOuter1"></feGaussianBlur>
            <feColorMatrix values="0 0 0 0 0   0 0 0 0 0   0 0 0 0 0  0 0 0 0.25 0" type="matrix" in="shadowBlurOuter1"></feColorMatrix>
        </filter>
        <circle id="path-3" cx="6" cy="6" r="6"></circle>
        <filter x="-50%" y="-50%" width="200%" height="200%" filterUnits="objectBoundingBox" id="filter-4">
            <feOffset dx="0" dy="1" in="SourceAlpha" result="shadowOffsetOuter1"></feOffset>
            <feGaussianBlur stdDeviation="0.5" in="shadowOffsetOuter1" result="shadowBlurOuter1"></feGaussianBlur>
            <feColorMatrix values="0 0 0 0 0   0 0 0 0 0   0 0 0 0 0  0 0 0 0.15 0" type="matrix" in="shadowBlurOuter1"></feColorMatrix>
        </filter>
        <circle id="path-5" cx="25" cy="6" r="6"></circle>
        <filter x="-50%" y="-50%" width="200%" height="200%" filterUnits="objectBoundingBox" id="filter-6">
            <feOffset dx="0" dy="1" in="SourceAlpha" result="shadowOffsetOuter1"></feOffset>
            <feGaussianBlur stdDeviation="0.5" in="shadowOffsetOuter1" result="shadowBlurOuter1"></feGaussianBlur>
            <feColorMatrix values="0 0 0 0 0   0 0 0 0 0   0 0 0 0 0  0 0 0 0.15 0" type="matrix" in="shadowBlurOuter1"></feColorMatrix>
        </filter>
        <circle id="path-7" cx="45" cy="6" r="6"></circle>
        <filter x="-50%" y="-50%" width="200%" height="200%" filterUnits="objectBoundingBox" id="filter-8">
            <feOffset dx="0" dy="1" in="SourceAlpha" result="shadowOffsetOuter1"></feOffset>
            <feGaussianBlur stdDeviation="0.5" in="shadowOffsetOuter1" result="shadowBlurOuter1"></feGaussianBlur>
            <feColorMatrix values="0 0 0 0 0   0 0 0 0 0   0 0 0 0 0  0 0 0 0.15 0" type="matrix" in="shadowBlurOuter1"></feColorMatrix>
        </filter>
    </defs>
    <g id="CLI" stroke="none" stroke-width="1" fill="none" fill-rule="evenodd">
        <g id="CLI-Copy-2">
            <g id="Screem">
                <use fill="black" fill-opacity="1" filter="url(#filter-2)" xlink:href="#path-1"></use>
                <use fill="#1E1E1E" fill-rule="evenodd" xlink:href="#path-1"></use>
            </g>
            <rect id="Header" fill="#D5D5D5" x="6" y="5" width="344" height="28"></rect>
            <g id="IDE" transform="translate(20.000000, 13.000000)">
                <g id="Oval-1">
                    <use fill="black" fill-opacity="1" filter="url(#filter-4)" xlink:href="#path-3"></use>
                    <use fill="#FF6057" fill-rule="evenodd" xlink:href="#path-3"></use>
                </g>
                <g id="Oval-1">
                    <use fill="black" fill-opacity="1" filter="url(#filter-6)" xlink:href="#path-5"></use>
                    <use fill="#FFC22E" fill-rule="evenodd" xlink:href="#path-5"></use>
                </g>
                <g id="Oval-1">
                    <use fill="black" fill-opacity="1" filter="url(#filter-8)" xlink:href="#path-7"></use>
                    <use fill="#28CA40" fill-rule="evenodd" xlink:href="#path-7"></use>
                </g>
            </g>
            <path d="M25.6015625,68.4306641 L25.6015625,67.1865234 L32.8271484,70.0439453 L32.8271484,71.1787109 L25.6015625,74.0361328 L25.6015625,72.7851562 L31.4121094,70.6181641 L25.6015625,68.4306641 Z M57.4707031,70.2558594 L57.4707031,75 L56.2060547,75 L56.2060547,70.2558594 C56.2060547,69.5677049 56.0852877,69.0618506 55.84375,68.7382812 C55.6022123,68.4147119 55.2239609,68.2529297 54.7089844,68.2529297 C54.1210908,68.2529297 53.6687841,68.4614237 53.3520508,68.878418 C53.0353174,69.2954122 52.8769531,69.8935508 52.8769531,70.6728516 L52.8769531,75 L51.6191406,75 L51.6191406,67.34375 L52.8769531,67.34375 L52.8769531,68.4921875 C53.1002615,68.0546853 53.4033184,67.7231457 53.7861328,67.4975586 C54.1689472,67.2719715 54.6223932,67.1591797 55.1464844,67.1591797 C55.9257851,67.1591797 56.5079733,67.4155248 56.8930664,67.9282227 C57.2781595,68.4409205 57.4707031,69.2167917 57.4707031,70.2558594 L57.4707031,70.2558594 Z M61.2783203,74.0361328 L61.2783203,77.9121094 L60.0136719,77.9121094 L60.0136719,67.34375 L61.2783203,67.34375 L61.2783203,68.3212891 C61.4879568,67.943032 61.7670881,67.6547861 62.1157227,67.456543 C62.4643572,67.2582998 62.8665342,67.1591797 63.3222656,67.1591797 C64.2474005,67.1591797 64.9731419,67.5169235 65.4995117,68.2324219 C66.0258815,68.9479202 66.2890625,69.9391213 66.2890625,71.2060547 C66.2890625,72.4502015 66.0247422,73.4265915 65.4960938,74.1352539 C64.9674453,74.8439163 64.2428431,75.1982422 63.3222656,75.1982422 C62.8574196,75.1982422 62.4506853,75.0991221 62.1020508,74.9008789 C61.7534162,74.7026357 61.4788421,74.4143899 61.2783203,74.0361328 L61.2783203,74.0361328 Z M64.9697266,71.1787109 C64.9697266,70.2034456 64.8159195,69.4674504 64.5083008,68.9707031 C64.2006821,68.4739558 63.7438181,68.2255859 63.1376953,68.2255859 C62.5270152,68.2255859 62.0644547,68.4750952 61.75,68.9741211 C61.4355453,69.473147 61.2783203,70.208003 61.2783203,71.1787109 C61.2783203,72.1448616 61.4355453,72.8785782 61.75,73.3798828 C62.0644547,73.8811874 62.5270152,74.1318359 63.1376953,74.1318359 C63.7438181,74.1318359 64.2006821,73.883466 64.5083008,73.3867188 C64.8159195,72.8899715 64.9697266,72.1539762 64.9697266,71.1787109 L64.9697266,71.1787109 Z M71.7646484,68.1230469 C71.9195971,67.7949202 72.116698,67.5522469 72.355957,67.3950195 C72.595216,67.2377922 72.8834619,67.1591797 73.2207031,67.1591797 C73.8359406,67.1591797 74.2700183,67.3972958 74.5229492,67.8735352 C74.7758802,68.3497745 74.9023438,69.2464127 74.9023438,70.5634766 L74.9023438,75 L73.7539062,75 L73.7539062,70.6181641 C73.7539062,69.5380805 73.6935227,68.867026 73.5727539,68.6049805 C73.4519851,68.3429349 73.2320979,68.2119141 72.9130859,68.2119141 C72.5485008,68.2119141 72.2989916,68.3520494 72.1645508,68.6323242 C72.03011,68.9125991 71.9628906,69.5745391 71.9628906,70.6181641 L71.9628906,75 L70.8144531,75 L70.8144531,70.6181641 C70.8144531,69.5244086 70.7495124,68.8499362 70.6196289,68.5947266 C70.4897454,68.339517 70.2561866,68.2119141 69.9189453,68.2119141 C69.5862614,68.2119141 69.3549811,68.3520494 69.2250977,68.6323242 C69.0952142,68.9125991 69.0302734,69.5745391 69.0302734,70.6181641 L69.0302734,75 L67.8886719,75 L67.8886719,67.34375 L69.0302734,67.34375 L69.0302734,68 C69.1806648,67.7265611 69.3686512,67.5180671 69.5942383,67.3745117 C69.8198253,67.2309563 70.0761704,67.1591797 70.3632812,67.1591797 C70.7096371,67.1591797 70.997883,67.2389315 71.2280273,67.3984375 C71.4581717,67.5579435 71.6370436,67.7994775 71.7646484,68.1230469 L71.7646484,68.1230469 Z M86.1611328,67.3710938 L89.3808594,67.3710938 L89.3808594,74.0224609 L91.8759766,74.0224609 L91.8759766,75 L85.6279297,75 L85.6279297,74.0224609 L88.1230469,74.0224609 L88.1230469,68.3486328 L86.1611328,68.3486328 L86.1611328,67.3710938 Z M88.1230469,64.3974609 L89.3808594,64.3974609 L89.3808594,65.9833984 L88.1230469,65.9833984 L88.1230469,64.3974609 Z M99.6142578,70.2558594 L99.6142578,75 L98.3496094,75 L98.3496094,70.2558594 C98.3496094,69.5677049 98.2288424,69.0618506 97.9873047,68.7382812 C97.745767,68.4147119 97.3675156,68.2529297 96.8525391,68.2529297 C96.2646455,68.2529297 95.8123388,68.4614237 95.4956055,68.878418 C95.1788721,69.2954122 95.0205078,69.8935508 95.0205078,70.6728516 L95.0205078,75 L93.7626953,75 L93.7626953,67.34375 L95.0205078,67.34375 L95.0205078,68.4921875 C95.2438162,68.0546853 95.5468731,67.7231457 95.9296875,67.4975586 C96.3125019,67.2719715 96.7659479,67.1591797 97.2900391,67.1591797 C98.0693398,67.1591797 98.651528,67.4155248 99.0366211,67.9282227 C99.4217142,68.4409205 99.6142578,69.2167917 99.6142578,70.2558594 L99.6142578,70.2558594 Z M107.509766,67.6103516 L107.509766,68.8408203 C107.149738,68.6311838 106.787437,68.4739589 106.422852,68.3691406 C106.058266,68.2643224 105.686851,68.2119141 105.308594,68.2119141 C104.738929,68.2119141 104.313966,68.3041983 104.033691,68.4887695 C103.753417,68.6733408 103.613281,68.9547507 103.613281,69.3330078 C103.613281,69.6748064 103.718098,69.9300122 103.927734,70.0986328 C104.137371,70.2672534 104.659176,70.4313143 105.493164,70.5908203 L105.999023,70.6865234 C106.623376,70.8050136 107.09619,71.0419904 107.41748,71.3974609 C107.738771,71.7529315 107.899414,72.2154919 107.899414,72.7851562 C107.899414,73.5416704 107.630537,74.1329731 107.092773,74.559082 C106.55501,74.9851909 105.807622,75.1982422 104.850586,75.1982422 C104.472329,75.1982422 104.075848,75.1583663 103.661133,75.0786133 C103.246417,74.9988603 102.797528,74.8792326 102.314453,74.7197266 L102.314453,73.4208984 C102.783857,73.6624361 103.232745,73.8435866 103.661133,73.9643555 C104.08952,74.0851243 104.495115,74.1455078 104.87793,74.1455078 C105.433922,74.1455078 105.864582,74.032716 106.169922,73.8071289 C106.475262,73.5815418 106.62793,73.2659525 106.62793,72.8603516 C106.62793,72.2770153 106.069667,71.873699 104.953125,71.6503906 L104.898438,71.6367188 L104.426758,71.5410156 C103.702145,71.3997389 103.173504,71.1616228 102.84082,70.8266602 C102.508136,70.4916975 102.341797,70.0348336 102.341797,69.4560547 C102.341797,68.7223271 102.590167,68.1560892 103.086914,67.7573242 C103.583661,67.3585592 104.292313,67.1591797 105.212891,67.1591797 C105.623049,67.1591797 106.017251,67.196777 106.395508,67.2719727 C106.773765,67.3471683 107.14518,67.4599602 107.509766,67.6103516 L107.509766,67.6103516 Z M113.484375,65.1699219 L113.484375,67.34375 L116.341797,67.34375 L116.341797,68.3212891 L113.484375,68.3212891 L113.484375,72.4775391 C113.484375,73.0426461 113.59147,73.4368478 113.805664,73.6601562 C114.019858,73.8834647 114.393552,73.9951172 114.926758,73.9951172 L116.341797,73.9951172 L116.341797,75 L114.803711,75 C113.860347,75 113.194989,74.8108743 112.807617,74.4326172 C112.420245,74.0543601 112.226562,73.4026739 112.226562,72.4775391 L112.226562,68.3212891 L110.182617,68.3212891 L110.182617,67.34375 L112.226562,67.34375 L112.226562,65.1699219 L113.484375,65.1699219 Z M122.514648,71.1513672 L122.097656,71.1513672 C121.363929,71.1513672 120.811363,71.2801094 120.439941,71.5375977 C120.06852,71.7950859 119.882812,72.1790339 119.882812,72.6894531 C119.882812,73.1497419 120.021809,73.5074857 120.299805,73.7626953 C120.577801,74.0179049 120.962888,74.1455078 121.455078,74.1455078 C122.14779,74.1455078 122.692381,73.9051131 123.088867,73.4243164 C123.485354,72.9435197 123.685872,72.2793011 123.69043,71.4316406 L123.69043,71.1513672 L122.514648,71.1513672 Z M124.955078,70.6318359 L124.955078,75 L123.69043,75 L123.69043,73.8652344 C123.421548,74.3209658 123.083173,74.6570627 122.675293,74.8735352 C122.267413,75.0900076 121.771813,75.1982422 121.188477,75.1982422 C120.409176,75.1982422 119.787112,74.9783551 119.322266,74.5385742 C118.85742,74.0987934 118.625,73.5097693 118.625,72.7714844 C118.625,71.9192666 118.910967,71.2721376 119.48291,70.8300781 C120.054853,70.3880186 120.894526,70.1669922 122.001953,70.1669922 L123.69043,70.1669922 L123.69043,69.96875 C123.685872,69.3580699 123.530926,68.9148777 123.225586,68.6391602 C122.920246,68.3634426 122.432621,68.2255859 121.762695,68.2255859 C121.334308,68.2255859 120.901369,68.2871088 120.463867,68.4101562 C120.026365,68.5332037 119.600262,68.713215 119.185547,68.9501953 L119.185547,67.6923828 C119.650393,67.5146475 120.095864,67.3813481 120.521973,67.2924805 C120.948082,67.2036128 121.361652,67.1591797 121.762695,67.1591797 C122.396162,67.1591797 122.937335,67.2526032 123.38623,67.4394531 C123.835126,67.626303 124.198566,67.9065737 124.476562,68.2802734 C124.64974,68.5081392 124.772786,68.7895491 124.845703,69.1245117 C124.91862,69.4594743 124.955078,69.9619107 124.955078,70.6318359 L124.955078,70.6318359 Z M131.05957,72.2314453 C131.05957,72.7965523 131.163248,73.2226548 131.370605,73.5097656 C131.577963,73.7968764 131.884438,73.9404297 132.290039,73.9404297 L133.759766,73.9404297 L133.759766,75 L132.166992,75 C131.415035,75 130.832847,74.7596053 130.42041,74.2788086 C130.007973,73.7980119 129.801758,73.1155643 129.801758,72.2314453 L129.801758,65.3066406 L127.785156,65.3066406 L127.785156,64.3222656 L131.05957,64.3222656 L131.05957,72.2314453 Z M139.488281,72.2314453 C139.488281,72.7965523 139.591959,73.2226548 139.799316,73.5097656 C140.006674,73.7968764 140.313149,73.9404297 140.71875,73.9404297 L142.188477,73.9404297 L142.188477,75 L140.595703,75 C139.843746,75 139.261558,74.7596053 138.849121,74.2788086 C138.436684,73.7980119 138.230469,73.1155643 138.230469,72.2314453 L138.230469,65.3066406 L136.213867,65.3066406 L136.213867,64.3222656 L139.488281,64.3222656 L139.488281,72.2314453 Z M152.12793,70.0507812 L159.374023,70.0507812 L159.374023,71.2060547 L152.12793,71.2060547 L152.12793,70.0507812 Z M165.724609,71.1103516 C165.724609,70.1669875 165.570802,69.4503605 165.263184,68.9604492 C164.955565,68.4705379 164.507815,68.2255859 163.919922,68.2255859 C163.304684,68.2255859 162.835288,68.4705379 162.511719,68.9604492 C162.188149,69.4503605 162.026367,70.1669875 162.026367,71.1103516 C162.026367,72.0537157 162.189289,72.7726212 162.515137,73.2670898 C162.840985,73.7615585 163.313799,74.0087891 163.933594,74.0087891 C164.512373,74.0087891 164.955565,73.7604192 165.263184,73.2636719 C165.570802,72.7669246 165.724609,72.0491583 165.724609,71.1103516 L165.724609,71.1103516 Z M166.982422,74.5078125 C166.982422,75.6562557 166.711266,76.5266897 166.168945,77.1191406 C165.626625,77.7115915 164.829107,78.0078125 163.776367,78.0078125 C163.430011,78.0078125 163.06771,77.9759118 162.689453,77.9121094 C162.311196,77.848307 161.932945,77.7548834 161.554688,77.6318359 L161.554688,76.3876953 C162.001304,76.5973318 162.406899,76.7522781 162.771484,76.8525391 C163.13607,76.9528 163.471027,77.0029297 163.776367,77.0029297 C164.455407,77.0029297 164.949868,76.8183612 165.259766,76.4492188 C165.569663,76.0800763 165.724609,75.4944702 165.724609,74.6923828 L165.724609,74.6376953 L165.724609,73.7832031 C165.524088,74.2115907 165.250653,74.5305979 164.904297,74.7402344 C164.557941,74.9498708 164.136396,75.0546875 163.639648,75.0546875 C162.746415,75.0546875 162.033206,74.6969437 161.5,73.9814453 C160.966794,73.2659469 160.700195,72.3089253 160.700195,71.1103516 C160.700195,69.9072205 160.966794,68.9479202 161.5,68.2324219 C162.033206,67.5169235 162.746415,67.1591797 163.639648,67.1591797 C164.131838,67.1591797 164.548826,67.2571605 164.890625,67.453125 C165.232424,67.6490895 165.510416,67.9521464 165.724609,68.3623047 L165.724609,67.3710938 L166.982422,67.3710938 L166.982422,74.5078125 Z M181.515625,71.1513672 L181.098633,71.1513672 C180.364905,71.1513672 179.812339,71.2801094 179.440918,71.5375977 C179.069497,71.7950859 178.883789,72.1790339 178.883789,72.6894531 C178.883789,73.1497419 179.022785,73.5074857 179.300781,73.7626953 C179.578777,74.0179049 179.963865,74.1455078 180.456055,74.1455078 C181.148766,74.1455078 181.693357,73.9051131 182.089844,73.4243164 C182.48633,72.9435197 182.686849,72.2793011 182.691406,71.4316406 L182.691406,71.1513672 L181.515625,71.1513672 Z M183.956055,70.6318359 L183.956055,75 L182.691406,75 L182.691406,73.8652344 C182.422525,74.3209658 182.084149,74.6570627 181.67627,74.8735352 C181.26839,75.0900076 180.772789,75.1982422 180.189453,75.1982422 C179.410152,75.1982422 178.788088,74.9783551 178.323242,74.5385742 C177.858396,74.0987934 177.625977,73.5097693 177.625977,72.7714844 C177.625977,71.9192666 177.911944,71.2721376 178.483887,70.8300781 C179.05583,70.3880186 179.895502,70.1669922 181.00293,70.1669922 L182.691406,70.1669922 L182.691406,69.96875 C182.686849,69.3580699 182.531903,68.9148777 182.226562,68.6391602 C181.921222,68.3634426 181.433597,68.2255859 180.763672,68.2255859 C180.335284,68.2255859 179.902346,68.2871088 179.464844,68.4101562 C179.027342,68.5332037 178.601239,68.713215 178.186523,68.9501953 L178.186523,67.6923828 C178.65137,67.5146475 179.09684,67.3813481 179.522949,67.2924805 C179.949058,67.2036128 180.362628,67.1591797 180.763672,67.1591797 C181.397139,67.1591797 181.938312,67.2526032 182.387207,67.4394531 C182.836103,67.626303 183.199543,67.9065737 183.477539,68.2802734 C183.650717,68.5081392 183.773763,68.7895491 183.84668,69.1245117 C183.919597,69.4594743 183.956055,69.9619107 183.956055,70.6318359 L183.956055,70.6318359 Z M192.330078,70.2558594 L192.330078,75 L191.06543,75 L191.06543,70.2558594 C191.06543,69.5677049 190.944663,69.0618506 190.703125,68.7382812 C190.461587,68.4147119 190.083336,68.2529297 189.568359,68.2529297 C188.980466,68.2529297 188.528159,68.4614237 188.211426,68.878418 C187.894692,69.2954122 187.736328,69.8935508 187.736328,70.6728516 L187.736328,75 L186.478516,75 L186.478516,67.34375 L187.736328,67.34375 L187.736328,68.4921875 C187.959637,68.0546853 188.262693,67.7231457 188.645508,67.4975586 C189.028322,67.2719715 189.481768,67.1591797 190.005859,67.1591797 C190.78516,67.1591797 191.367348,67.4155248 191.752441,67.9282227 C192.137534,68.4409205 192.330078,69.2167917 192.330078,70.2558594 L192.330078,70.2558594 Z M199.439453,71.1103516 C199.439453,70.1669875 199.285646,69.4503605 198.978027,68.9604492 C198.670409,68.4705379 198.222659,68.2255859 197.634766,68.2255859 C197.019528,68.2255859 196.550132,68.4705379 196.226562,68.9604492 C195.902993,69.4503605 195.741211,70.1669875 195.741211,71.1103516 C195.741211,72.0537157 195.904132,72.7726212 196.22998,73.2670898 C196.555828,73.7615585 197.028643,74.0087891 197.648438,74.0087891 C198.227216,74.0087891 198.670409,73.7604192 198.978027,73.2636719 C199.285646,72.7669246 199.439453,72.0491583 199.439453,71.1103516 L199.439453,71.1103516 Z M200.697266,74.5078125 C200.697266,75.6562557 200.426109,76.5266897 199.883789,77.1191406 C199.341469,77.7115915 198.543951,78.0078125 197.491211,78.0078125 C197.144855,78.0078125 196.782554,77.9759118 196.404297,77.9121094 C196.02604,77.848307 195.647788,77.7548834 195.269531,77.6318359 L195.269531,76.3876953 C195.716148,76.5973318 196.121743,76.7522781 196.486328,76.8525391 C196.850913,76.9528 197.185871,77.0029297 197.491211,77.0029297 C198.170251,77.0029297 198.664712,76.8183612 198.974609,76.4492188 C199.284507,76.0800763 199.439453,75.4944702 199.439453,74.6923828 L199.439453,74.6376953 L199.439453,73.7832031 C199.238931,74.2115907 198.965497,74.5305979 198.619141,74.7402344 C198.272785,74.9498708 197.851239,75.0546875 197.354492,75.0546875 C196.461259,75.0546875 195.74805,74.6969437 195.214844,73.9814453 C194.681638,73.2659469 194.415039,72.3089253 194.415039,71.1103516 C194.415039,69.9072205 194.681638,68.9479202 195.214844,68.2324219 C195.74805,67.5169235 196.461259,67.1591797 197.354492,67.1591797 C197.846682,67.1591797 198.26367,67.2571605 198.605469,67.453125 C198.947267,67.6490895 199.225259,67.9521464 199.439453,68.3623047 L199.439453,67.3710938 L200.697266,67.3710938 L200.697266,74.5078125 Z M203.335938,72.1015625 L203.335938,67.3574219 L204.59375,67.3574219 L204.59375,72.1015625 C204.59375,72.789717 204.715656,73.2955713 204.959473,73.6191406 C205.203289,73.94271 205.580401,74.1044922 206.09082,74.1044922 C206.683271,74.1044922 207.136717,73.8959982 207.451172,73.4790039 C207.765627,73.0620096 207.922852,72.4638711 207.922852,71.6845703 L207.922852,67.3574219 L209.1875,67.3574219 L209.1875,75 L207.922852,75 L207.922852,73.8515625 C207.699543,74.293622 207.395347,74.6285796 207.010254,74.8564453 C206.625161,75.084311 206.175133,75.1982422 205.660156,75.1982422 C204.876298,75.1982422 204.292971,74.9418971 203.910156,74.4291992 C203.527342,73.9165013 203.335938,73.1406302 203.335938,72.1015625 L203.335938,72.1015625 Z M215.34668,72.2314453 C215.34668,72.7965523 215.450357,73.2226548 215.657715,73.5097656 C215.865073,73.7968764 216.171547,73.9404297 216.577148,73.9404297 L218.046875,73.9404297 L218.046875,75 L216.454102,75 C215.702145,75 215.119956,74.7596053 214.70752,74.2788086 C214.295083,73.7980119 214.088867,73.1155643 214.088867,72.2314453 L214.088867,65.3066406 L212.072266,65.3066406 L212.072266,64.3222656 L215.34668,64.3222656 L215.34668,72.2314453 Z M223.65918,71.1513672 L223.242188,71.1513672 C222.50846,71.1513672 221.955894,71.2801094 221.584473,71.5375977 C221.213052,71.7950859 221.027344,72.1790339 221.027344,72.6894531 C221.027344,73.1497419 221.16634,73.5074857 221.444336,73.7626953 C221.722332,74.0179049 222.107419,74.1455078 222.599609,74.1455078 C223.292321,74.1455078 223.836912,73.9051131 224.233398,73.4243164 C224.629885,72.9435197 224.830404,72.2793011 224.834961,71.4316406 L224.834961,71.1513672 L223.65918,71.1513672 Z M226.099609,70.6318359 L226.099609,75 L224.834961,75 L224.834961,73.8652344 C224.566079,74.3209658 224.227704,74.6570627 223.819824,74.8735352 C223.411945,75.0900076 222.916344,75.1982422 222.333008,75.1982422 C221.553707,75.1982422 220.931643,74.9783551 220.466797,74.5385742 C220.001951,74.0987934 219.769531,73.5097693 219.769531,72.7714844 C219.769531,71.9192666 220.055498,71.2721376 220.627441,70.8300781 C221.199384,70.3880186 222.039057,70.1669922 223.146484,70.1669922 L224.834961,70.1669922 L224.834961,69.96875 C224.830404,69.3580699 224.675457,68.9148777 224.370117,68.6391602 C224.064777,68.3634426 223.577152,68.2255859 222.907227,68.2255859 C222.478839,68.2255859 222.045901,68.2871088 221.608398,68.4101562 C221.170896,68.5332037 220.744794,68.713215 220.330078,68.9501953 L220.330078,67.6923828 C220.794924,67.5146475 221.240395,67.3813481 221.666504,67.2924805 C222.092613,67.2036128 222.506183,67.1591797 222.907227,67.1591797 C223.540693,67.1591797 224.081866,67.2526032 224.530762,67.4394531 C224.979657,67.626303 225.343098,67.9065737 225.621094,68.2802734 C225.794272,68.5081392 225.917317,68.7895491 225.990234,69.1245117 C226.063151,69.4594743 226.099609,69.9619107 226.099609,70.6318359 L226.099609,70.6318359 Z M235.18457,68.9228516 C234.915689,68.7132151 234.642254,68.5605474 234.364258,68.4648438 C234.086262,68.3691401 233.780926,68.3212891 233.448242,68.3212891 C232.664384,68.3212891 232.065106,68.5673804 231.650391,69.0595703 C231.235675,69.5517603 231.02832,70.2626907 231.02832,71.1923828 L231.02832,75 L229.763672,75 L229.763672,67.34375 L231.02832,67.34375 L231.02832,68.8408203 C231.237957,68.2984999 231.560382,67.8826512 231.995605,67.5932617 C232.430829,67.3038723 232.946937,67.1591797 233.543945,67.1591797 C233.853843,67.1591797 234.143228,67.1979163 234.412109,67.2753906 C234.680991,67.352865 234.938475,67.473632 235.18457,67.6376953 L235.18457,68.9228516 Z M236.415039,70.0507812 L243.661133,70.0507812 L243.661133,71.2060547 L236.415039,71.2060547 L236.415039,70.0507812 Z M251.399414,74.6103516 C251.062173,74.8063161 250.714683,74.9532873 250.356934,75.0512695 C249.999184,75.1492518 249.633465,75.1982422 249.259766,75.1982422 C248.074864,75.1982422 247.148604,74.842777 246.480957,74.1318359 C245.81331,73.4208949 245.479492,72.4365297 245.479492,71.1787109 C245.479492,69.9208921 245.81331,68.936527 246.480957,68.2255859 C247.148604,67.5146449 248.074864,67.1591797 249.259766,67.1591797 C249.628908,67.1591797 249.988931,67.2070308 250.339844,67.3027344 C250.690757,67.398438 251.043944,67.5465485 251.399414,67.7470703 L251.399414,69.0664062 C251.06673,68.7701808 250.732912,68.5559902 250.397949,68.4238281 C250.062987,68.291666 249.683596,68.2255859 249.259766,68.2255859 C248.47135,68.2255859 247.865236,68.4807917 247.441406,68.9912109 C247.017576,69.5016302 246.805664,70.2307895 246.805664,71.1787109 C246.805664,72.122075 247.018715,72.8500951 247.444824,73.362793 C247.870933,73.8754908 248.475908,74.1318359 249.259766,74.1318359 C249.697268,74.1318359 250.089191,74.0646166 250.435547,73.9301758 C250.781903,73.795735 251.103189,73.587241 251.399414,73.3046875 L251.399414,74.6103516 Z M257.490234,72.2314453 C257.490234,72.7965523 257.593912,73.2226548 257.80127,73.5097656 C258.008627,73.7968764 258.315102,73.9404297 258.720703,73.9404297 L260.19043,73.9404297 L260.19043,75 L258.597656,75 C257.845699,75 257.263511,74.7596053 256.851074,74.2788086 C256.438637,73.7980119 256.232422,73.1155643 256.232422,72.2314453 L256.232422,65.3066406 L254.21582,65.3066406 L254.21582,64.3222656 L257.490234,64.3222656 L257.490234,72.2314453 Z M263.164062,67.3710938 L266.383789,67.3710938 L266.383789,74.0224609 L268.878906,74.0224609 L268.878906,75 L262.630859,75 L262.630859,74.0224609 L265.125977,74.0224609 L265.125977,68.3486328 L263.164062,68.3486328 L263.164062,67.3710938 Z M265.125977,64.3974609 L266.383789,64.3974609 L266.383789,65.9833984 L265.125977,65.9833984 L265.125977,64.3974609 Z M25.6015625,100.430664 L25.6015625,99.1865234 L32.8271484,102.043945 L32.8271484,103.178711 L25.6015625,106.036133 L25.6015625,104.785156 L31.4121094,102.618164 L25.6015625,100.430664 Z M57.4707031,102.255859 L57.4707031,107 L56.2060547,107 L56.2060547,102.255859 C56.2060547,101.567705 56.0852877,101.061851 55.84375,100.738281 C55.6022123,100.414712 55.2239609,100.25293 54.7089844,100.25293 C54.1210908,100.25293 53.6687841,100.461424 53.3520508,100.878418 C53.0353174,101.295412 52.8769531,101.893551 52.8769531,102.672852 L52.8769531,107 L51.6191406,107 L51.6191406,99.34375 L52.8769531,99.34375 L52.8769531,100.492188 C53.1002615,100.054685 53.4033184,99.7231457 53.7861328,99.4975586 C54.1689472,99.2719715 54.6223932,99.1591797 55.1464844,99.1591797 C55.9257851,99.1591797 56.5079733,99.4155248 56.8930664,99.9282227 C57.2781595,100.440921 57.4707031,101.216792 57.4707031,102.255859 L57.4707031,102.255859 Z M64.5800781,103.110352 C64.5800781,102.166987 64.4262711,101.450361 64.1186523,100.960449 C63.8110336,100.470538 63.3632842,100.225586 62.7753906,100.225586 C62.1601532,100.225586 61.6907568,100.470538 61.3671875,100.960449 C61.0436182,101.450361 60.8818359,102.166987 60.8818359,103.110352 C60.8818359,104.053716 61.0447575,104.772621 61.3706055,105.26709 C61.6964535,105.761558 62.1692677,106.008789 62.7890625,106.008789 C63.3678414,106.008789 63.8110336,105.760419 64.1186523,105.263672 C64.4262711,104.766925 64.5800781,104.049158 64.5800781,103.110352 L64.5800781,103.110352 Z M65.8378906,106.507812 C65.8378906,107.656256 65.5667345,108.52669 65.0244141,109.119141 C64.4820936,109.711592 63.6845756,110.007812 62.6318359,110.007812 C62.28548,110.007812 61.923179,109.975912 61.5449219,109.912109 C61.1666648,109.848307 60.7884133,109.754883 60.4101562,109.631836 L60.4101562,108.387695 C60.8567731,108.597332 61.262368,108.752278 61.6269531,108.852539 C61.9915383,108.9528 62.3264959,109.00293 62.6318359,109.00293 C63.3108758,109.00293 63.805337,108.818361 64.1152344,108.449219 C64.4251318,108.080076 64.5800781,107.49447 64.5800781,106.692383 L64.5800781,106.637695 L64.5800781,105.783203 C64.3795563,106.211591 64.1061215,106.530598 63.7597656,106.740234 C63.4134097,106.949871 62.9918645,107.054688 62.4951172,107.054688 C61.6018836,107.054688 60.8886745,106.696944 60.3554688,105.981445 C59.822263,105.265947 59.5556641,104.308925 59.5556641,103.110352 C59.5556641,101.907221 59.822263,100.94792 60.3554688,100.232422 C60.8886745,99.5169235 61.6018836,99.1591797 62.4951172,99.1591797 C62.9873071,99.1591797 63.4042952,99.2571605 63.7460938,99.453125 C64.0878923,99.6490895 64.3658843,99.9521464 64.5800781,100.362305 L64.5800781,99.3710938 L65.8378906,99.3710938 L65.8378906,106.507812 Z M82.7568359,102.255859 L82.7568359,107 L81.4921875,107 L81.4921875,102.255859 C81.4921875,101.567705 81.3714205,101.061851 81.1298828,100.738281 C80.8883451,100.414712 80.5100937,100.25293 79.9951172,100.25293 C79.4072236,100.25293 78.9549169,100.461424 78.6381836,100.878418 C78.3214502,101.295412 78.1630859,101.893551 78.1630859,102.672852 L78.1630859,107 L76.9052734,107 L76.9052734,99.34375 L78.1630859,99.34375 L78.1630859,100.492188 C78.3863943,100.054685 78.6894512,99.7231457 79.0722656,99.4975586 C79.45508,99.2719715 79.908526,99.1591797 80.4326172,99.1591797 C81.211918,99.1591797 81.7941061,99.4155248 82.1791992,99.9282227 C82.5642923,100.440921 82.7568359,101.216792 82.7568359,102.255859 L82.7568359,102.255859 Z M91.6572266,102.542969 L91.6572266,103.158203 L86.2089844,103.158203 L86.2089844,103.199219 C86.1725259,104.242844 86.3719054,104.992511 86.8071289,105.448242 C87.2423524,105.903974 87.8564413,106.131836 88.6494141,106.131836 C89.0504577,106.131836 89.4697244,106.068034 89.9072266,105.94043 C90.3447288,105.812825 90.8118465,105.619142 91.3085938,105.359375 L91.3085938,106.610352 C90.8300757,106.806316 90.3686546,106.953287 89.9243164,107.05127 C89.4799782,107.149252 89.0504578,107.198242 88.6357422,107.198242 C87.4462831,107.198242 86.5166049,106.841638 85.8466797,106.128418 C85.1767545,105.415198 84.8417969,104.431972 84.8417969,103.178711 C84.8417969,101.957351 85.1699186,100.9821 85.8261719,100.25293 C86.4824252,99.5237594 87.3574164,99.1591797 88.4511719,99.1591797 C89.4264372,99.1591797 90.1954724,99.48958 90.7583008,100.150391 C91.3211291,100.811201 91.620768,101.608719 91.6572266,102.542969 L91.6572266,102.542969 Z M90.3994141,102.173828 C90.3447263,101.64518 90.1521826,101.188316 89.8217773,100.803223 C89.491372,100.41813 89.0162791,100.225586 88.3964844,100.225586 C87.7903616,100.225586 87.2913431,100.426105 86.8994141,100.827148 C86.507485,101.228192 86.2932945,101.679359 86.2568359,102.180664 L90.3994141,102.173828 Z M92.4296875,99.34375 L93.6738281,99.34375 L95.0068359,105.530273 L96.1005859,101.579102 L97.1738281,101.579102 L98.28125,105.530273 L99.6142578,99.34375 L100.858398,99.34375 L99.0673828,107 L97.8642578,107 L96.640625,102.802734 L95.4238281,107 L94.2207031,107 L92.4296875,99.34375 Z M113.908203,100.123047 C114.063152,99.7949202 114.260253,99.5522469 114.499512,99.3950195 C114.738771,99.2377922 115.027017,99.1591797 115.364258,99.1591797 C115.979495,99.1591797 116.413573,99.3972958 116.666504,99.8735352 C116.919435,100.349775 117.045898,101.246413 117.045898,102.563477 L117.045898,107 L115.897461,107 L115.897461,102.618164 C115.897461,101.538081 115.837077,100.867026 115.716309,100.60498 C115.59554,100.342935 115.375653,100.211914 115.056641,100.211914 C114.692055,100.211914 114.442546,100.352049 114.308105,100.632324 C114.173665,100.912599 114.106445,101.574539 114.106445,102.618164 L114.106445,107 L112.958008,107 L112.958008,102.618164 C112.958008,101.524409 112.893067,100.849936 112.763184,100.594727 C112.6333,100.339517 112.399741,100.211914 112.0625,100.211914 C111.729816,100.211914 111.498536,100.352049 111.368652,100.632324 C111.238769,100.912599 111.173828,101.574539 111.173828,102.618164 L111.173828,107 L110.032227,107 L110.032227,99.34375 L111.173828,99.34375 L111.173828,100 C111.32422,99.7265611 111.512206,99.5180671 111.737793,99.3745117 C111.96338,99.2309563 112.219725,99.1591797 112.506836,99.1591797 C112.853192,99.1591797 113.141438,99.2389315 113.371582,99.3984375 C113.601726,99.5579435 113.780598,99.7994775 113.908203,100.123047 L113.908203,100.123047 Z M123.581055,104.539062 C123.371418,105.072268 123.104819,105.774084 122.78125,106.644531 C122.330076,107.847662 122.027019,108.581379 121.87207,108.845703 C121.662434,109.201174 121.400392,109.467773 121.085938,109.645508 C120.771483,109.823243 120.404624,109.912109 119.985352,109.912109 L118.973633,109.912109 L118.973633,108.859375 L119.71875,108.859375 C120.087892,108.859375 120.377278,108.75228 120.586914,108.538086 C120.796551,108.323892 121.063149,107.770187 121.386719,106.876953 L118.426758,99.34375 L119.759766,99.34375 L122.029297,105.332031 L124.264648,99.34375 L125.597656,99.34375 L123.581055,104.539062 Z M126.841797,102.050781 L134.087891,102.050781 L134.087891,103.206055 L126.841797,103.206055 L126.841797,102.050781 Z M140.438477,100.321289 L140.438477,96.3632812 L141.696289,96.3632812 L141.696289,107 L140.438477,107 L140.438477,106.036133 C140.22884,106.41439 139.949709,106.702636 139.601074,106.900879 C139.25244,107.099122 138.850263,107.198242 138.394531,107.198242 C137.469396,107.198242 136.741376,106.839359 136.210449,106.121582 C135.679522,105.403805 135.414062,104.413743 135.414062,103.151367 C135.414062,101.90722 135.680661,100.93083 136.213867,100.222168 C136.747073,99.5135056 137.473954,99.1591797 138.394531,99.1591797 C138.85482,99.1591797 139.260415,99.2582998 139.611328,99.456543 C139.962241,99.6547861 140.237955,99.943032 140.438477,100.321289 L140.438477,100.321289 Z M136.740234,103.178711 C136.740234,104.153976 136.895181,104.889971 137.205078,105.386719 C137.514976,105.883466 137.972979,106.131836 138.579102,106.131836 C139.185224,106.131836 139.646646,105.881187 139.963379,105.379883 C140.280112,104.878578 140.438477,104.144862 140.438477,103.178711 C140.438477,102.208003 140.280112,101.473147 139.963379,100.974121 C139.646646,100.475095 139.185224,100.225586 138.579102,100.225586 C137.972979,100.225586 137.514976,100.473956 137.205078,100.970703 C136.895181,101.46745 136.740234,102.203446 136.740234,103.178711 L136.740234,103.178711 Z M150.897461,100.922852 C150.628579,100.713215 150.355145,100.560547 150.077148,100.464844 C149.799152,100.36914 149.493817,100.321289 149.161133,100.321289 C148.377275,100.321289 147.777997,100.56738 147.363281,101.05957 C146.948566,101.55176 146.741211,102.262691 146.741211,103.192383 L146.741211,107 L145.476562,107 L145.476562,99.34375 L146.741211,99.34375 L146.741211,100.84082 C146.950847,100.2985 147.273273,99.8826512 147.708496,99.5932617 C148.14372,99.3038723 148.659828,99.1591797 149.256836,99.1591797 C149.566733,99.1591797 149.856118,99.1979163 150.125,99.2753906 C150.393882,99.352865 150.651366,99.473632 150.897461,99.6376953 L150.897461,100.922852 Z M159.086914,102.542969 L159.086914,103.158203 L153.638672,103.158203 L153.638672,103.199219 C153.602213,104.242844 153.801593,104.992511 154.236816,105.448242 C154.67204,105.903974 155.286129,106.131836 156.079102,106.131836 C156.480145,106.131836 156.899412,106.068034 157.336914,105.94043 C157.774416,105.812825 158.241534,105.619142 158.738281,105.359375 L158.738281,106.610352 C158.259763,106.806316 157.798342,106.953287 157.354004,107.05127 C156.909666,107.149252 156.480145,107.198242 156.06543,107.198242 C154.875971,107.198242 153.946292,106.841638 153.276367,106.128418 C152.606442,105.415198 152.271484,104.431972 152.271484,103.178711 C152.271484,101.957351 152.599606,100.9821 153.255859,100.25293 C153.912113,99.5237594 154.787104,99.1591797 155.880859,99.1591797 C156.856125,99.1591797 157.62516,99.48958 158.187988,100.150391 C158.750817,100.811201 159.050456,101.608719 159.086914,102.542969 L159.086914,102.542969 Z M157.829102,102.173828 C157.774414,101.64518 157.58187,101.188316 157.251465,100.803223 C156.92106,100.41813 156.445967,100.225586 155.826172,100.225586 C155.220049,100.225586 154.721031,100.426105 154.329102,100.827148 C153.937173,101.228192 153.722982,101.679359 153.686523,102.180664 L157.829102,102.173828 Z M164.658203,103.151367 L164.241211,103.151367 C163.507483,103.151367 162.954917,103.280109 162.583496,103.537598 C162.212075,103.795086 162.026367,104.179034 162.026367,104.689453 C162.026367,105.149742 162.165363,105.507486 162.443359,105.762695 C162.721356,106.017905 163.106443,106.145508 163.598633,106.145508 C164.291345,106.145508 164.835936,105.905113 165.232422,105.424316 C165.628908,104.94352 165.829427,104.279301 165.833984,103.431641 L165.833984,103.151367 L164.658203,103.151367 Z M167.098633,102.631836 L167.098633,107 L165.833984,107 L165.833984,105.865234 C165.565103,106.320966 165.226727,106.657063 164.818848,106.873535 C164.410968,107.090008 163.915368,107.198242 163.332031,107.198242 C162.55273,107.198242 161.930666,106.978355 161.46582,106.538574 C161.000974,106.098793 160.768555,105.509769 160.768555,104.771484 C160.768555,103.919267 161.054522,103.272138 161.626465,102.830078 C162.198408,102.388019 163.03808,102.166992 164.145508,102.166992 L165.833984,102.166992 L165.833984,101.96875 C165.829427,101.35807 165.674481,100.914878 165.369141,100.63916 C165.063801,100.363443 164.576175,100.225586 163.90625,100.225586 C163.477862,100.225586 163.044924,100.287109 162.607422,100.410156 C162.16992,100.533204 161.743817,100.713215 161.329102,100.950195 L161.329102,99.6923828 C161.793948,99.5146475 162.239418,99.3813481 162.665527,99.2924805 C163.091636,99.2036128 163.505206,99.1591797 163.90625,99.1591797 C164.539717,99.1591797 165.08089,99.2526032 165.529785,99.4394531 C165.978681,99.626303 166.342121,99.9065737 166.620117,100.280273 C166.793295,100.508139 166.916341,100.789549 166.989258,101.124512 C167.062175,101.459474 167.098633,101.961911 167.098633,102.631836 L167.098633,102.631836 Z M172.90918,100.123047 C173.064128,99.7949202 173.261229,99.5522469 173.500488,99.3950195 C173.739747,99.2377922 174.027993,99.1591797 174.365234,99.1591797 C174.980472,99.1591797 175.41455,99.3972958 175.66748,99.8735352 C175.920411,100.349775 176.046875,101.246413 176.046875,102.563477 L176.046875,107 L174.898438,107 L174.898438,102.618164 C174.898438,101.538081 174.838054,100.867026 174.717285,100.60498 C174.596516,100.342935 174.376629,100.211914 174.057617,100.211914 C173.693032,100.211914 173.443523,100.352049 173.309082,100.632324 C173.174641,100.912599 173.107422,101.574539 173.107422,102.618164 L173.107422,107 L171.958984,107 L171.958984,102.618164 C171.958984,101.524409 171.894044,100.849936 171.76416,100.594727 C171.634277,100.339517 171.400718,100.211914 171.063477,100.211914 C170.730793,100.211914 170.499512,100.352049 170.369629,100.632324 C170.239745,100.912599 170.174805,101.574539 170.174805,102.618164 L170.174805,107 L169.033203,107 L169.033203,99.34375 L170.174805,99.34375 L170.174805,100 C170.325196,99.7265611 170.513182,99.5180671 170.73877,99.3745117 C170.964357,99.2309563 171.220702,99.1591797 171.507812,99.1591797 C171.854168,99.1591797 172.142414,99.2389315 172.372559,99.3984375 C172.602703,99.5579435 172.781575,99.7994775 172.90918,100.123047 L172.90918,100.123047 Z M177.414062,102.050781 L184.660156,102.050781 L184.660156,103.206055 L177.414062,103.206055 L177.414062,102.050781 Z M189.944336,103.151367 L189.527344,103.151367 C188.793616,103.151367 188.24105,103.280109 187.869629,103.537598 C187.498208,103.795086 187.3125,104.179034 187.3125,104.689453 C187.3125,105.149742 187.451496,105.507486 187.729492,105.762695 C188.007488,106.017905 188.392576,106.145508 188.884766,106.145508 C189.577477,106.145508 190.122068,105.905113 190.518555,105.424316 C190.915041,104.94352 191.11556,104.279301 191.120117,103.431641 L191.120117,103.151367 L189.944336,103.151367 Z M192.384766,102.631836 L192.384766,107 L191.120117,107 L191.120117,105.865234 C190.851236,106.320966 190.51286,106.657063 190.10498,106.873535 C189.697101,107.090008 189.2015,107.198242 188.618164,107.198242 C187.838863,107.198242 187.216799,106.978355 186.751953,106.538574 C186.287107,106.098793 186.054688,105.509769 186.054688,104.771484 C186.054688,103.919267 186.340655,103.272138 186.912598,102.830078 C187.484541,102.388019 188.324213,102.166992 189.431641,102.166992 L191.120117,102.166992 L191.120117,101.96875 C191.11556,101.35807 190.960614,100.914878 190.655273,100.63916 C190.349933,100.363443 189.862308,100.225586 189.192383,100.225586 C188.763995,100.225586 188.331057,100.287109 187.893555,100.410156 C187.456052,100.533204 187.02995,100.713215 186.615234,100.950195 L186.615234,99.6923828 C187.08008,99.5146475 187.525551,99.3813481 187.95166,99.2924805 C188.377769,99.2036128 188.791339,99.1591797 189.192383,99.1591797 C189.82585,99.1591797 190.367022,99.2526032 190.815918,99.4394531 C191.264813,99.626303 191.628254,99.9065737 191.90625,100.280273 C192.079428,100.508139 192.202474,100.789549 192.275391,101.124512 C192.348308,101.459474 192.384766,101.961911 192.384766,102.631836 L192.384766,102.631836 Z M196.137695,106.036133 L196.137695,109.912109 L194.873047,109.912109 L194.873047,99.34375 L196.137695,99.34375 L196.137695,100.321289 C196.347332,99.943032 196.626463,99.6547861 196.975098,99.456543 C197.323732,99.2582998 197.725909,99.1591797 198.181641,99.1591797 C199.106775,99.1591797 199.832517,99.5169235 200.358887,100.232422 C200.885257,100.94792 201.148438,101.939121 201.148438,103.206055 C201.148438,104.450202 200.884117,105.426592 200.355469,106.135254 C199.82682,106.843916 199.102218,107.198242 198.181641,107.198242 C197.716795,107.198242 197.31006,107.099122 196.961426,106.900879 C196.612791,106.702636 196.338217,106.41439 196.137695,106.036133 L196.137695,106.036133 Z M199.829102,103.178711 C199.829102,102.203446 199.675295,101.46745 199.367676,100.970703 C199.060057,100.473956 198.603193,100.225586 197.99707,100.225586 C197.38639,100.225586 196.92383,100.475095 196.609375,100.974121 C196.29492,101.473147 196.137695,102.208003 196.137695,103.178711 C196.137695,104.144862 196.29492,104.878578 196.609375,105.379883 C196.92383,105.881187 197.38639,106.131836 197.99707,106.131836 C198.603193,106.131836 199.060057,105.883466 199.367676,105.386719 C199.675295,104.889971 199.829102,104.153976 199.829102,103.178711 L199.829102,103.178711 Z M204.566406,106.036133 L204.566406,109.912109 L203.301758,109.912109 L203.301758,99.34375 L204.566406,99.34375 L204.566406,100.321289 C204.776043,99.943032 205.055174,99.6547861 205.403809,99.456543 C205.752443,99.2582998 206.15462,99.1591797 206.610352,99.1591797 C207.535486,99.1591797 208.261228,99.5169235 208.787598,100.232422 C209.313967,100.94792 209.577148,101.939121 209.577148,103.206055 C209.577148,104.450202 209.312828,105.426592 208.78418,106.135254 C208.255531,106.843916 207.530929,107.198242 206.610352,107.198242 C206.145505,107.198242 205.738771,107.099122 205.390137,106.900879 C205.041502,106.702636 204.766928,106.41439 204.566406,106.036133 L204.566406,106.036133 Z M208.257812,103.178711 C208.257812,102.203446 208.104005,101.46745 207.796387,100.970703 C207.488768,100.473956 207.031904,100.225586 206.425781,100.225586 C205.815101,100.225586 205.352541,100.475095 205.038086,100.974121 C204.723631,101.473147 204.566406,102.208003 204.566406,103.178711 C204.566406,104.144862 204.723631,104.878578 205.038086,105.379883 C205.352541,105.881187 205.815101,106.131836 206.425781,106.131836 C207.031904,106.131836 207.488768,105.883466 207.796387,105.386719 C208.104005,104.889971 208.257812,104.153976 208.257812,103.178711 L208.257812,103.178711 Z M25.6015625,132.430664 L25.6015625,131.186523 L32.8271484,134.043945 L32.8271484,135.178711 L25.6015625,138.036133 L25.6015625,136.785156 L31.4121094,134.618164 L25.6015625,132.430664 Z M57.5390625,138.610352 C57.2018212,138.806316 56.8543312,138.953287 56.496582,139.05127 C56.1388328,139.149252 55.7731138,139.198242 55.3994141,139.198242 C54.2145123,139.198242 53.288252,138.842777 52.6206055,138.131836 C51.9529589,137.420895 51.6191406,136.43653 51.6191406,135.178711 C51.6191406,133.920892 51.9529589,132.936527 52.6206055,132.225586 C53.288252,131.514645 54.2145123,131.15918 55.3994141,131.15918 C55.7685565,131.15918 56.128579,131.207031 56.4794922,131.302734 C56.8304054,131.398438 57.183592,131.546548 57.5390625,131.74707 L57.5390625,133.066406 C57.2063785,132.770181 56.8725603,132.55599 56.5375977,132.423828 C56.202635,132.291666 55.8232443,132.225586 55.3994141,132.225586 C54.6109987,132.225586 54.0048849,132.480792 53.5810547,132.991211 C53.1572244,133.50163 52.9453125,134.23079 52.9453125,135.178711 C52.9453125,136.122075 53.1583638,136.850095 53.5844727,137.362793 C54.0105816,137.875491 54.615556,138.131836 55.3994141,138.131836 C55.8369163,138.131836 56.2288394,138.064617 56.5751953,137.930176 C56.9215512,137.795735 57.2428371,137.587241 57.5390625,137.304688 L57.5390625,138.610352 Z M64.5800781,132.321289 L64.5800781,128.363281 L65.8378906,128.363281 L65.8378906,139 L64.5800781,139 L64.5800781,138.036133 C64.3704417,138.41439 64.0913103,138.702636 63.7426758,138.900879 C63.3940412,139.099122 62.9918643,139.198242 62.5361328,139.198242 C61.610998,139.198242 60.8829779,138.839359 60.3520508,138.121582 C59.8211236,137.403805 59.5556641,136.413743 59.5556641,135.151367 C59.5556641,133.90722 59.822263,132.93083 60.3554688,132.222168 C60.8886745,131.513506 61.6155553,131.15918 62.5361328,131.15918 C62.9964216,131.15918 63.4020165,131.2583 63.7529297,131.456543 C64.1038429,131.654786 64.3795563,131.943032 64.5800781,132.321289 L64.5800781,132.321289 Z M60.8818359,135.178711 C60.8818359,136.153976 61.0367823,136.889971 61.3466797,137.386719 C61.6565771,137.883466 62.1145803,138.131836 62.7207031,138.131836 C63.3268259,138.131836 63.7882471,137.881187 64.1049805,137.379883 C64.4217138,136.878578 64.5800781,136.144862 64.5800781,135.178711 C64.5800781,134.208003 64.4217138,133.473147 64.1049805,132.974121 C63.7882471,132.475095 63.3268259,132.225586 62.7207031,132.225586 C62.1145803,132.225586 61.6565771,132.473956 61.3466797,132.970703 C61.0367823,133.46745 60.8818359,134.203446 60.8818359,135.178711 L60.8818359,135.178711 Z M80.1933594,132.123047 C80.3483081,131.79492 80.545409,131.552247 80.784668,131.39502 C81.023927,131.237792 81.3121728,131.15918 81.6494141,131.15918 C82.2646515,131.15918 82.6987292,131.397296 82.9516602,131.873535 C83.2045911,132.349775 83.3310547,133.246413 83.3310547,134.563477 L83.3310547,139 L82.1826172,139 L82.1826172,134.618164 C82.1826172,133.538081 82.1222337,132.867026 82.0014648,132.60498 C81.880696,132.342935 81.6608089,132.211914 81.3417969,132.211914 C80.9772117,132.211914 80.7277025,132.352049 80.5932617,132.632324 C80.4588209,132.912599 80.3916016,133.574539 80.3916016,134.618164 L80.3916016,139 L79.2431641,139 L79.2431641,134.618164 C79.2431641,133.524409 79.1782233,132.849936 79.0483398,132.594727 C78.9184564,132.339517 78.6848975,132.211914 78.3476562,132.211914 C78.0149723,132.211914 77.7836921,132.352049 77.6538086,132.632324 C77.5239251,132.912599 77.4589844,133.574539 77.4589844,134.618164 L77.4589844,139 L76.3173828,139 L76.3173828,131.34375 L77.4589844,131.34375 L77.4589844,132 C77.6093758,131.726561 77.7973622,131.518067 78.0229492,131.374512 C78.2485363,131.230956 78.5048814,131.15918 78.7919922,131.15918 C79.1383481,131.15918 79.4265939,131.238931 79.6567383,131.398438 C79.8868827,131.557944 80.0657546,131.799478 80.1933594,132.123047 L80.1933594,132.123047 Z M89.8662109,136.539062 C89.6565745,137.072268 89.3899756,137.774084 89.0664062,138.644531 C88.6152321,139.847662 88.3121753,140.581379 88.1572266,140.845703 C87.9475901,141.201174 87.6855484,141.467773 87.3710938,141.645508 C87.0566391,141.823243 86.6897807,141.912109 86.2705078,141.912109 L85.2587891,141.912109 L85.2587891,140.859375 L86.0039062,140.859375 C86.3730487,140.859375 86.6624338,140.75228 86.8720703,140.538086 C87.0817068,140.323892 87.3483057,139.770187 87.671875,138.876953 L84.7119141,131.34375 L86.0449219,131.34375 L88.3144531,137.332031 L90.5498047,131.34375 L91.8828125,131.34375 L89.8662109,136.539062 Z M93.1269531,134.050781 L100.373047,134.050781 L100.373047,135.206055 L93.1269531,135.206055 L93.1269531,134.050781 Z M106.723633,132.321289 L106.723633,128.363281 L107.981445,128.363281 L107.981445,139 L106.723633,139 L106.723633,138.036133 C106.513996,138.41439 106.234865,138.702636 105.88623,138.900879 C105.537596,139.099122 105.135419,139.198242 104.679688,139.198242 C103.754553,139.198242 103.026533,138.839359 102.495605,138.121582 C101.964678,137.403805 101.699219,136.413743 101.699219,135.151367 C101.699219,133.90722 101.965818,132.93083 102.499023,132.222168 C103.032229,131.513506 103.75911,131.15918 104.679688,131.15918 C105.139976,131.15918 105.545571,131.2583 105.896484,131.456543 C106.247398,131.654786 106.523111,131.943032 106.723633,132.321289 L106.723633,132.321289 Z M103.025391,135.178711 C103.025391,136.153976 103.180337,136.889971 103.490234,137.386719 C103.800132,137.883466 104.258135,138.131836 104.864258,138.131836 C105.470381,138.131836 105.931802,137.881187 106.248535,137.379883 C106.565269,136.878578 106.723633,136.144862 106.723633,135.178711 C106.723633,134.208003 106.565269,133.473147 106.248535,132.974121 C105.931802,132.475095 105.470381,132.225586 104.864258,132.225586 C104.258135,132.225586 103.800132,132.473956 103.490234,132.970703 C103.180337,133.46745 103.025391,134.203446 103.025391,135.178711 L103.025391,135.178711 Z M117.182617,132.922852 C116.913736,132.713215 116.640301,132.560547 116.362305,132.464844 C116.084309,132.36914 115.778973,132.321289 115.446289,132.321289 C114.662431,132.321289 114.063153,132.56738 113.648438,133.05957 C113.233722,133.55176 113.026367,134.262691 113.026367,135.192383 L113.026367,139 L111.761719,139 L111.761719,131.34375 L113.026367,131.34375 L113.026367,132.84082 C113.236004,132.2985 113.558429,131.882651 113.993652,131.593262 C114.428876,131.303872 114.944984,131.15918 115.541992,131.15918 C115.85189,131.15918 116.141275,131.197916 116.410156,131.275391 C116.679038,131.352865 116.936522,131.473632 117.182617,131.637695 L117.182617,132.922852 Z M125.37207,134.542969 L125.37207,135.158203 L119.923828,135.158203 L119.923828,135.199219 C119.88737,136.242844 120.086749,136.992511 120.521973,137.448242 C120.957196,137.903974 121.571285,138.131836 122.364258,138.131836 C122.765301,138.131836 123.184568,138.068034 123.62207,137.94043 C124.059573,137.812825 124.52669,137.619142 125.023438,137.359375 L125.023438,138.610352 C124.544919,138.806316 124.083498,138.953287 123.63916,139.05127 C123.194822,139.149252 122.765302,139.198242 122.350586,139.198242 C121.161127,139.198242 120.231449,138.841638 119.561523,138.128418 C118.891598,137.415198 118.556641,136.431972 118.556641,135.178711 C118.556641,133.957351 118.884762,132.9821 119.541016,132.25293 C120.197269,131.523759 121.07226,131.15918 122.166016,131.15918 C123.141281,131.15918 123.910316,131.48958 124.473145,132.150391 C125.035973,132.811201 125.335612,133.608719 125.37207,134.542969 L125.37207,134.542969 Z M124.114258,134.173828 C124.05957,133.64518 123.867026,133.188316 123.536621,132.803223 C123.206216,132.41813 122.731123,132.225586 122.111328,132.225586 C121.505205,132.225586 121.006187,132.426105 120.614258,132.827148 C120.222329,133.228192 120.008138,133.679359 119.97168,134.180664 L124.114258,134.173828 Z M130.943359,135.151367 L130.526367,135.151367 C129.79264,135.151367 129.240073,135.280109 128.868652,135.537598 C128.497231,135.795086 128.311523,136.179034 128.311523,136.689453 C128.311523,137.149742 128.450519,137.507486 128.728516,137.762695 C129.006512,138.017905 129.391599,138.145508 129.883789,138.145508 C130.576501,138.145508 131.121092,137.905113 131.517578,137.424316 C131.914064,136.94352 132.114583,136.279301 132.119141,135.431641 L132.119141,135.151367 L130.943359,135.151367 Z M133.383789,134.631836 L133.383789,139 L132.119141,139 L132.119141,137.865234 C131.850259,138.320966 131.511884,138.657063 131.104004,138.873535 C130.696124,139.090008 130.200524,139.198242 129.617188,139.198242 C128.837887,139.198242 128.215823,138.978355 127.750977,138.538574 C127.28613,138.098793 127.053711,137.509769 127.053711,136.771484 C127.053711,135.919267 127.339678,135.272138 127.911621,134.830078 C128.483564,134.388019 129.323237,134.166992 130.430664,134.166992 L132.119141,134.166992 L132.119141,133.96875 C132.114583,133.35807 131.959637,132.914878 131.654297,132.63916 C131.348957,132.363443 130.861331,132.225586 130.191406,132.225586 C129.763019,132.225586 129.33008,132.287109 128.892578,132.410156 C128.455076,132.533204 128.028973,132.713215 127.614258,132.950195 L127.614258,131.692383 C128.079104,131.514648 128.524575,131.381348 128.950684,131.29248 C129.376792,131.203613 129.790363,131.15918 130.191406,131.15918 C130.824873,131.15918 131.366046,131.252603 131.814941,131.439453 C132.263837,131.626303 132.627277,131.906574 132.905273,132.280273 C133.078451,132.508139 133.201497,132.789549 133.274414,133.124512 C133.347331,133.459474 133.383789,133.961911 133.383789,134.631836 L133.383789,134.631836 Z M139.194336,132.123047 C139.349285,131.79492 139.546386,131.552247 139.785645,131.39502 C140.024904,131.237792 140.313149,131.15918 140.650391,131.15918 C141.265628,131.15918 141.699706,131.397296 141.952637,131.873535 C142.205568,132.349775 142.332031,133.246413 142.332031,134.563477 L142.332031,139 L141.183594,139 L141.183594,134.618164 C141.183594,133.538081 141.12321,132.867026 141.002441,132.60498 C140.881673,132.342935 140.661785,132.211914 140.342773,132.211914 C139.978188,132.211914 139.728679,132.352049 139.594238,132.632324 C139.459798,132.912599 139.392578,133.574539 139.392578,134.618164 L139.392578,139 L138.244141,139 L138.244141,134.618164 C138.244141,133.524409 138.1792,132.849936 138.049316,132.594727 C137.919433,132.339517 137.685874,132.211914 137.348633,132.211914 C137.015949,132.211914 136.784669,132.352049 136.654785,132.632324 C136.524902,132.912599 136.459961,133.574539 136.459961,134.618164 L136.459961,139 L135.318359,139 L135.318359,131.34375 L136.459961,131.34375 L136.459961,132 C136.610352,131.726561 136.798339,131.518067 137.023926,131.374512 C137.249513,131.230956 137.505858,131.15918 137.792969,131.15918 C138.139325,131.15918 138.42757,131.238931 138.657715,131.398438 C138.887859,131.557944 139.066731,131.799478 139.194336,132.123047 L139.194336,132.123047 Z M143.699219,134.050781 L150.945312,134.050781 L150.945312,135.206055 L143.699219,135.206055 L143.699219,134.050781 Z M156.229492,135.151367 L155.8125,135.151367 C155.078772,135.151367 154.526206,135.280109 154.154785,135.537598 C153.783364,135.795086 153.597656,136.179034 153.597656,136.689453 C153.597656,137.149742 153.736652,137.507486 154.014648,137.762695 C154.292645,138.017905 154.677732,138.145508 155.169922,138.145508 C155.862634,138.145508 156.407225,137.905113 156.803711,137.424316 C157.200197,136.94352 157.400716,136.279301 157.405273,135.431641 L157.405273,135.151367 L156.229492,135.151367 Z M158.669922,134.631836 L158.669922,139 L157.405273,139 L157.405273,137.865234 C157.136392,138.320966 156.798016,138.657063 156.390137,138.873535 C155.982257,139.090008 155.486657,139.198242 154.90332,139.198242 C154.12402,139.198242 153.501955,138.978355 153.037109,138.538574 C152.572263,138.098793 152.339844,137.509769 152.339844,136.771484 C152.339844,135.919267 152.625811,135.272138 153.197754,134.830078 C153.769697,134.388019 154.609369,134.166992 155.716797,134.166992 L157.405273,134.166992 L157.405273,133.96875 C157.400716,133.35807 157.24577,132.914878 156.94043,132.63916 C156.63509,132.363443 156.147464,132.225586 155.477539,132.225586 C155.049152,132.225586 154.616213,132.287109 154.178711,132.410156 C153.741209,132.533204 153.315106,132.713215 152.900391,132.950195 L152.900391,131.692383 C153.365237,131.514648 153.810708,131.381348 154.236816,131.29248 C154.662925,131.203613 155.076495,131.15918 155.477539,131.15918 C156.111006,131.15918 156.652179,131.252603 157.101074,131.439453 C157.54997,131.626303 157.91341,131.906574 158.191406,132.280273 C158.364584,132.508139 158.48763,132.789549 158.560547,133.124512 C158.633464,133.459474 158.669922,133.961911 158.669922,134.631836 L158.669922,134.631836 Z M162.422852,138.036133 L162.422852,141.912109 L161.158203,141.912109 L161.158203,131.34375 L162.422852,131.34375 L162.422852,132.321289 C162.632488,131.943032 162.911619,131.654786 163.260254,131.456543 C163.608888,131.2583 164.011065,131.15918 164.466797,131.15918 C165.391932,131.15918 166.117673,131.516924 166.644043,132.232422 C167.170413,132.94792 167.433594,133.939121 167.433594,135.206055 C167.433594,136.450202 167.169273,137.426592 166.640625,138.135254 C166.111977,138.843916 165.387374,139.198242 164.466797,139.198242 C164.001951,139.198242 163.595217,139.099122 163.246582,138.900879 C162.897947,138.702636 162.623373,138.41439 162.422852,138.036133 L162.422852,138.036133 Z M166.114258,135.178711 C166.114258,134.203446 165.960451,133.46745 165.652832,132.970703 C165.345213,132.473956 164.888349,132.225586 164.282227,132.225586 C163.671546,132.225586 163.208986,132.475095 162.894531,132.974121 C162.580077,133.473147 162.422852,134.208003 162.422852,135.178711 C162.422852,136.144862 162.580077,136.878578 162.894531,137.379883 C163.208986,137.881187 163.671546,138.131836 164.282227,138.131836 C164.888349,138.131836 165.345213,137.883466 165.652832,137.386719 C165.960451,136.889971 166.114258,136.153976 166.114258,135.178711 L166.114258,135.178711 Z M170.851562,138.036133 L170.851562,141.912109 L169.586914,141.912109 L169.586914,131.34375 L170.851562,131.34375 L170.851562,132.321289 C171.061199,131.943032 171.34033,131.654786 171.688965,131.456543 C172.037599,131.2583 172.439776,131.15918 172.895508,131.15918 C173.820643,131.15918 174.546384,131.516924 175.072754,132.232422 C175.599124,132.94792 175.862305,133.939121 175.862305,135.206055 C175.862305,136.450202 175.597984,137.426592 175.069336,138.135254 C174.540687,138.843916 173.816085,139.198242 172.895508,139.198242 C172.430662,139.198242 172.023928,139.099122 171.675293,138.900879 C171.326658,138.702636 171.052084,138.41439 170.851562,138.036133 L170.851562,138.036133 Z M174.542969,135.178711 C174.542969,134.203446 174.389162,133.46745 174.081543,132.970703 C173.773924,132.473956 173.31706,132.225586 172.710938,132.225586 C172.100257,132.225586 171.637697,132.475095 171.323242,132.974121 C171.008787,133.473147 170.851562,134.208003 170.851562,135.178711 C170.851562,136.144862 171.008787,136.878578 171.323242,137.379883 C171.637697,137.881187 172.100257,138.131836 172.710938,138.131836 C173.31706,138.131836 173.773924,137.883466 174.081543,137.386719 C174.389162,136.889971 174.542969,136.153976 174.542969,135.178711 L174.542969,135.178711 Z M25.6015625,164.430664 L25.6015625,163.186523 L32.8271484,166.043945 L32.8271484,167.178711 L25.6015625,170.036133 L25.6015625,168.785156 L31.4121094,166.618164 L25.6015625,164.430664 Z M57.4707031,166.255859 L57.4707031,171 L56.2060547,171 L56.2060547,166.255859 C56.2060547,165.567705 56.0852877,165.061851 55.84375,164.738281 C55.6022123,164.414712 55.2239609,164.25293 54.7089844,164.25293 C54.1210908,164.25293 53.6687841,164.461424 53.3520508,164.878418 C53.0353174,165.295412 52.8769531,165.893551 52.8769531,166.672852 L52.8769531,171 L51.6191406,171 L51.6191406,163.34375 L52.8769531,163.34375 L52.8769531,164.492188 C53.1002615,164.054685 53.4033184,163.723146 53.7861328,163.497559 C54.1689472,163.271972 54.6223932,163.15918 55.1464844,163.15918 C55.9257851,163.15918 56.5079733,163.415525 56.8930664,163.928223 C57.2781595,164.440921 57.4707031,165.216792 57.4707031,166.255859 L57.4707031,166.255859 Z M64.5800781,167.110352 C64.5800781,166.166987 64.4262711,165.450361 64.1186523,164.960449 C63.8110336,164.470538 63.3632842,164.225586 62.7753906,164.225586 C62.1601532,164.225586 61.6907568,164.470538 61.3671875,164.960449 C61.0436182,165.450361 60.8818359,166.166987 60.8818359,167.110352 C60.8818359,168.053716 61.0447575,168.772621 61.3706055,169.26709 C61.6964535,169.761558 62.1692677,170.008789 62.7890625,170.008789 C63.3678414,170.008789 63.8110336,169.760419 64.1186523,169.263672 C64.4262711,168.766925 64.5800781,168.049158 64.5800781,167.110352 L64.5800781,167.110352 Z M65.8378906,170.507812 C65.8378906,171.656256 65.5667345,172.52669 65.0244141,173.119141 C64.4820936,173.711592 63.6845756,174.007812 62.6318359,174.007812 C62.28548,174.007812 61.923179,173.975912 61.5449219,173.912109 C61.1666648,173.848307 60.7884133,173.754883 60.4101562,173.631836 L60.4101562,172.387695 C60.8567731,172.597332 61.262368,172.752278 61.6269531,172.852539 C61.9915383,172.9528 62.3264959,173.00293 62.6318359,173.00293 C63.3108758,173.00293 63.805337,172.818361 64.1152344,172.449219 C64.4251318,172.080076 64.5800781,171.49447 64.5800781,170.692383 L64.5800781,170.637695 L64.5800781,169.783203 C64.3795563,170.211591 64.1061215,170.530598 63.7597656,170.740234 C63.4134097,170.949871 62.9918645,171.054688 62.4951172,171.054688 C61.6018836,171.054688 60.8886745,170.696944 60.3554688,169.981445 C59.822263,169.265947 59.5556641,168.308925 59.5556641,167.110352 C59.5556641,165.907221 59.822263,164.94792 60.3554688,164.232422 C60.8886745,163.516924 61.6018836,163.15918 62.4951172,163.15918 C62.9873071,163.15918 63.4042952,163.25716 63.7460938,163.453125 C64.0878923,163.64909 64.3658843,163.952146 64.5800781,164.362305 L64.5800781,163.371094 L65.8378906,163.371094 L65.8378906,170.507812 Z M82.2236328,163.610352 L82.2236328,164.84082 C81.863605,164.631184 81.5013039,164.473959 81.1367188,164.369141 C80.7721336,164.264322 80.400718,164.211914 80.0224609,164.211914 C79.4527966,164.211914 79.0278334,164.304198 78.7475586,164.48877 C78.4672838,164.673341 78.3271484,164.954751 78.3271484,165.333008 C78.3271484,165.674806 78.4319651,165.930012 78.6416016,166.098633 C78.851238,166.267253 79.3730427,166.431314 80.2070312,166.59082 L80.7128906,166.686523 C81.3372427,166.805014 81.810057,167.04199 82.1313477,167.397461 C82.4526383,167.752931 82.6132812,168.215492 82.6132812,168.785156 C82.6132812,169.54167 82.3444037,170.132973 81.8066406,170.559082 C81.2688775,170.985191 80.5214892,171.198242 79.5644531,171.198242 C79.186196,171.198242 78.7897156,171.158366 78.375,171.078613 C77.9602844,170.99886 77.5113956,170.879233 77.0283203,170.719727 L77.0283203,169.420898 C77.4977237,169.662436 77.9466124,169.843587 78.375,169.964355 C78.8033876,170.085124 79.2089825,170.145508 79.5917969,170.145508 C80.1477892,170.145508 80.578449,170.032716 80.8837891,169.807129 C81.1891291,169.581542 81.3417969,169.265953 81.3417969,168.860352 C81.3417969,168.277015 80.7835342,167.873699 79.6669922,167.650391 L79.6123047,167.636719 L79.140625,167.541016 C78.416012,167.399739 77.8873715,167.161623 77.5546875,166.82666 C77.2220035,166.491698 77.0556641,166.034834 77.0556641,165.456055 C77.0556641,164.722327 77.304034,164.156089 77.8007812,163.757324 C78.2975285,163.358559 79.0061803,163.15918 79.9267578,163.15918 C80.3369161,163.15918 80.7311179,163.196777 81.109375,163.271973 C81.4876321,163.347168 81.8590477,163.45996 82.2236328,163.610352 L82.2236328,163.610352 Z M91.6572266,166.542969 L91.6572266,167.158203 L86.2089844,167.158203 L86.2089844,167.199219 C86.1725259,168.242844 86.3719054,168.992511 86.8071289,169.448242 C87.2423524,169.903974 87.8564413,170.131836 88.6494141,170.131836 C89.0504577,170.131836 89.4697244,170.068034 89.9072266,169.94043 C90.3447288,169.812825 90.8118465,169.619142 91.3085938,169.359375 L91.3085938,170.610352 C90.8300757,170.806316 90.3686546,170.953287 89.9243164,171.05127 C89.4799782,171.149252 89.0504578,171.198242 88.6357422,171.198242 C87.4462831,171.198242 86.5166049,170.841638 85.8466797,170.128418 C85.1767545,169.415198 84.8417969,168.431972 84.8417969,167.178711 C84.8417969,165.957351 85.1699186,164.9821 85.8261719,164.25293 C86.4824252,163.523759 87.3574164,163.15918 88.4511719,163.15918 C89.4264372,163.15918 90.1954724,163.48958 90.7583008,164.150391 C91.3211291,164.811201 91.620768,165.608719 91.6572266,166.542969 L91.6572266,166.542969 Z M90.3994141,166.173828 C90.3447263,165.64518 90.1521826,165.188316 89.8217773,164.803223 C89.491372,164.41813 89.0162791,164.225586 88.3964844,164.225586 C87.7903616,164.225586 87.2913431,164.426105 86.8994141,164.827148 C86.507485,165.228192 86.2932945,165.679359 86.2568359,166.180664 L90.3994141,166.173828 Z M100.325195,164.922852 C100.056314,164.713215 99.782879,164.560547 99.5048828,164.464844 C99.2268866,164.36914 98.9215511,164.321289 98.5888672,164.321289 C97.8050091,164.321289 97.2057312,164.56738 96.7910156,165.05957 C96.3763,165.55176 96.1689453,166.262691 96.1689453,167.192383 L96.1689453,171 L94.9042969,171 L94.9042969,163.34375 L96.1689453,163.34375 L96.1689453,164.84082 C96.3785818,164.2985 96.7010069,163.882651 97.1362305,163.593262 C97.571454,163.303872 98.0875621,163.15918 98.6845703,163.15918 C98.9944677,163.15918 99.2838528,163.197916 99.5527344,163.275391 C99.8216159,163.352865 100.0791,163.473632 100.325195,163.637695 L100.325195,164.922852 Z M101.541992,163.34375 L102.847656,163.34375 L105.069336,169.769531 L107.297852,163.34375 L108.603516,163.34375 L105.882812,171 L104.262695,171 L101.541992,163.34375 Z M116.943359,166.542969 L116.943359,167.158203 L111.495117,167.158203 L111.495117,167.199219 C111.458659,168.242844 111.658038,168.992511 112.093262,169.448242 C112.528485,169.903974 113.142574,170.131836 113.935547,170.131836 C114.336591,170.131836 114.755857,170.068034 115.193359,169.94043 C115.630862,169.812825 116.097979,169.619142 116.594727,169.359375 L116.594727,170.610352 C116.116209,170.806316 115.654787,170.953287 115.210449,171.05127 C114.766111,171.149252 114.336591,171.198242 113.921875,171.198242 C112.732416,171.198242 111.802738,170.841638 111.132812,170.128418 C110.462887,169.415198 110.12793,168.431972 110.12793,167.178711 C110.12793,165.957351 110.456051,164.9821 111.112305,164.25293 C111.768558,163.523759 112.643549,163.15918 113.737305,163.15918 C114.71257,163.15918 115.481605,163.48958 116.044434,164.150391 C116.607262,164.811201 116.906901,165.608719 116.943359,166.542969 L116.943359,166.542969 Z M115.685547,166.173828 C115.630859,165.64518 115.438315,165.188316 115.10791,164.803223 C114.777505,164.41813 114.302412,164.225586 113.682617,164.225586 C113.076494,164.225586 112.577476,164.426105 112.185547,164.827148 C111.793618,165.228192 111.579427,165.679359 111.542969,166.180664 L115.685547,166.173828 Z" id="&gt;--npm-install--g-an" fill="#FFFFFF"></path>
        </g>
    </g>
</svg>