<?xml version="1.0" encoding="UTF-8" standalone="no"?>
<svg width="261px" height="423px" viewBox="0 0 261 423" version="1.1" xmlns="http://www.w3.org/2000/svg" xmlns:xlink="http://www.w3.org/1999/xlink">
    <!-- Generator: Sketch 3.7.2 (28276) - http://www.bohemiancoding.com/sketch -->
    <title>Mobile</title>
    <desc>Created with Sketch.</desc>
    <defs>
        <path d="M17.4881428,400 C7.83037292,400 0,392.07203 0,382.293886 L0,17.7061143 C0,7.92561643 7.83037292,0 17.4881428,0 L207.509532,0 C217.169627,0 225,7.92561643 225,17.7061143 L225,382.293886 C225,392.07203 217.169627,400 207.509532,400 L17.4881428,400 Z M17.4068526,52.9896762 L208.782763,52.9896762 L208.782763,336.195004 L17.4068526,336.195004 L17.4068526,52.9896762 Z" id="path-1"></path>
        <filter x="-50%" y="-50%" width="200%" height="200%" filterUnits="objectBoundingBox" id="filter-2">
            <feOffset dx="0" dy="5" in="SourceAlpha" result="shadowOffsetOuter1"></feOffset>
            <feGaussianBlur stdDeviation="2.5" in="shadowOffsetOuter1" result="shadowBlurOuter1"></feGaussianBlur>
            <feColorMatrix values="0 0 0 0 0   0 0 0 0 0   0 0 0 0 0  0 0 0 0.24 0" type="matrix" in="shadowBlurOuter1" result="shadowMatrixOuter1"></feColorMatrix>
            <feOffset dx="0" dy="0" in="SourceAlpha" result="shadowOffsetOuter2"></feOffset>
            <feGaussianBlur stdDeviation="2.5" in="shadowOffsetOuter2" result="shadowBlurOuter2"></feGaussianBlur>
            <feColorMatrix values="0 0 0 0 0   0 0 0 0 0   0 0 0 0 0  0 0 0 0.12 0" type="matrix" in="shadowBlurOuter2" result="shadowMatrixOuter2"></feColorMatrix>
            <feMerge>
                <feMergeNode in="shadowMatrixOuter1"></feMergeNode>
                <feMergeNode in="shadowMatrixOuter2"></feMergeNode>
            </feMerge>
        </filter>
        <filter x="-50%" y="-50%" width="200%" height="200%" filterUnits="objectBoundingBox" id="filter-3">
            <feOffset dx="0" dy="2" in="SourceAlpha" result="shadowOffsetOuter1"></feOffset>
            <feGaussianBlur stdDeviation="1.5" in="shadowOffsetOuter1" result="shadowBlurOuter1"></feGaussianBlur>
            <feColorMatrix values="0 0 0 0 0   0 0 0 0 0   0 0 0 0 0  0 0 0 0.15 0" type="matrix" in="shadowBlurOuter1" result="shadowMatrixOuter1"></feColorMatrix>
            <feMerge>
                <feMergeNode in="shadowMatrixOuter1"></feMergeNode>
                <feMergeNode in="SourceGraphic"></feMergeNode>
            </feMerge>
        </filter>
        <rect id="path-4" x="0" y="0" width="177" height="38"></rect>
        <filter x="-50%" y="-50%" width="200%" height="200%" filterUnits="objectBoundingBox" id="filter-5">
            <feOffset dx="0" dy="2" in="SourceAlpha" result="shadowOffsetOuter1"></feOffset>
            <feGaussianBlur stdDeviation="2" in="shadowOffsetOuter1" result="shadowBlurOuter1"></feGaussianBlur>
            <feColorMatrix values="0 0 0 0 0   0 0 0 0 0   0 0 0 0 0  0 0 0 0.18 0" type="matrix" in="shadowBlurOuter1"></feColorMatrix>
        </filter>
        <rect id="path-6" x="0" y="0" width="177" height="38"></rect>
        <filter x="-50%" y="-50%" width="200%" height="200%" filterUnits="objectBoundingBox" id="filter-7">
            <feOffset dx="0" dy="2" in="SourceAlpha" result="shadowOffsetOuter1"></feOffset>
            <feGaussianBlur stdDeviation="2" in="shadowOffsetOuter1" result="shadowBlurOuter1"></feGaussianBlur>
            <feColorMatrix values="0 0 0 0 0   0 0 0 0 0   0 0 0 0 0  0 0 0 0.18 0" type="matrix" in="shadowBlurOuter1"></feColorMatrix>
        </filter>
        <rect id="path-8" x="0" y="0" width="177" height="38"></rect>
        <filter x="-50%" y="-50%" width="200%" height="200%" filterUnits="objectBoundingBox" id="filter-9">
            <feOffset dx="0" dy="2" in="SourceAlpha" result="shadowOffsetOuter1"></feOffset>
            <feGaussianBlur stdDeviation="2" in="shadowOffsetOuter1" result="shadowBlurOuter1"></feGaussianBlur>
            <feColorMatrix values="0 0 0 0 0   0 0 0 0 0   0 0 0 0 0  0 0 0 0.18 0" type="matrix" in="shadowBlurOuter1"></feColorMatrix>
        </filter>
        <rect id="path-10" x="0" y="0" width="177" height="38"></rect>
        <filter x="-50%" y="-50%" width="200%" height="200%" filterUnits="objectBoundingBox" id="filter-11">
            <feOffset dx="0" dy="2" in="SourceAlpha" result="shadowOffsetOuter1"></feOffset>
            <feGaussianBlur stdDeviation="2" in="shadowOffsetOuter1" result="shadowBlurOuter1"></feGaussianBlur>
            <feColorMatrix values="0 0 0 0 0   0 0 0 0 0   0 0 0 0 0  0 0 0 0.18 0" type="matrix" in="shadowBlurOuter1"></feColorMatrix>
        </filter>
        <rect id="path-12" x="0" y="0" width="177" height="38"></rect>
        <filter x="-50%" y="-50%" width="200%" height="200%" filterUnits="objectBoundingBox" id="filter-13">
            <feOffset dx="0" dy="2" in="SourceAlpha" result="shadowOffsetOuter1"></feOffset>
            <feGaussianBlur stdDeviation="2" in="shadowOffsetOuter1" result="shadowBlurOuter1"></feGaussianBlur>
            <feColorMatrix values="0 0 0 0 0   0 0 0 0 0   0 0 0 0 0  0 0 0 0.18 0" type="matrix" in="shadowBlurOuter1"></feColorMatrix>
        </filter>
        <circle id="path-14" cx="21" cy="21" r="21"></circle>
        <filter x="-50%" y="-50%" width="200%" height="200%" filterUnits="objectBoundingBox" id="filter-15">
            <feOffset dx="0" dy="3" in="SourceAlpha" result="shadowOffsetOuter1"></feOffset>
            <feGaussianBlur stdDeviation="2.5" in="shadowOffsetOuter1" result="shadowBlurOuter1"></feGaussianBlur>
            <feColorMatrix values="0 0 0 0 0   0 0 0 0 0   0 0 0 0 0  0 0 0 0.15 0" type="matrix" in="shadowBlurOuter1"></feColorMatrix>
        </filter>
    </defs>
    <g id="Mobile" stroke="none" stroke-width="1" fill="none" fill-rule="evenodd">
        <g>
            <g id="iphone" transform="translate(20.000000, 9.000000)">
                <g id="iPhone-Outline-Copy-2">
                    <use fill="black" fill-opacity="1" filter="url(#filter-2)" xlink:href="#path-1"></use>
                    <use fill="#ECEFF1" fill-rule="evenodd" xlink:href="#path-1"></use>
                </g>
                <path d="M133.449217,26.9964062 L90.3984404,26.9964062 C88.5408193,26.9964062 87.034263,25.4710722 87.034263,23.5902978 C87.034263,21.7095234 88.5408193,20.1865433 90.3984404,20.1865433 L133.449217,20.1865433 C135.306838,20.1865433 136.813394,21.7095234 136.813394,23.5902978 C136.813394,25.4710722 135.306838,26.9964062 133.449217,26.9964062 L133.449217,26.9964062 Z" id="speaker" fill="#FFFFFF"></path>
                <path d="M126.5625,366.666667 C126.5625,374.454876 120.266084,380.769231 112.5,380.769231 C104.733916,380.769231 98.4375,374.454876 98.4375,366.666667 C98.4375,358.878458 104.733916,352.564103 112.5,352.564103 C120.266084,352.564103 126.5625,358.878458 126.5625,366.666667 L126.5625,366.666667 Z" id="home-button" stroke="#FFFFFF" stroke-width="2.5"></path>
                <rect id="screen" fill="#FFFFFF" x="15" y="51" width="194.318182" height="287.179487"></rect>
            </g>
            <g id="Header" filter="url(#filter-3)" transform="translate(35.000000, 60.000000)">
                <rect id="header" fill="#03A9F4" x="0" y="0" width="194" height="33"></rect>
                <path d="M37.4936523,17.5546875 L37.6782227,18.7988281 L37.7192383,18.8056641 L37.9858398,17.5546875 L39.8110352,11.046875 L41.0004883,11.046875 L42.8393555,17.5546875 L43.112793,18.8330078 L43.1538086,18.8330078 L43.3520508,17.5546875 L44.8354492,11.046875 L46.1821289,11.046875 L43.7827148,21 L42.5795898,21 L40.6176758,14.0957031 L40.4399414,13.2001953 L40.3989258,13.2001953 L40.2280273,14.0957031 L38.2319336,21 L37.0288086,21 L34.6362305,11.046875 L35.9760742,11.046875 L37.4936523,17.5546875 Z M50.6801758,21.1435547 C49.6502227,21.1435547 48.8310577,20.8006219 48.2226562,20.1147461 C47.6142548,19.4288703 47.3100586,18.539068 47.3100586,17.4453125 L47.3100586,17.1445312 C47.3100586,16.0917916 47.6233693,15.215661 48.25,14.5161133 C48.8766307,13.8165655 49.6183225,13.4667969 50.4750977,13.4667969 C51.4731495,13.4667969 52.2273737,13.7675751 52.737793,14.3691406 C53.2482122,14.9707061 53.503418,15.7727814 53.503418,16.7753906 L53.503418,17.6162109 L48.7045898,17.6162109 L48.684082,17.6503906 C48.697754,18.3613317 48.8777652,18.9457985 49.2241211,19.4038086 C49.570477,19.8618187 50.0558237,20.0908203 50.6801758,20.0908203 C51.1359072,20.0908203 51.5358056,20.0258796 51.8798828,19.8959961 C52.2239601,19.7661126 52.5213204,19.5872407 52.7719727,19.359375 L53.2983398,20.234375 C53.0340156,20.4941419 52.6853863,20.7106111 52.2524414,20.8837891 C51.8194965,21.056967 51.2954132,21.1435547 50.6801758,21.1435547 L50.6801758,21.1435547 Z M50.4750977,14.5263672 C50.0239235,14.5263672 49.6388362,14.7166322 49.3198242,15.097168 C49.0008122,15.4777037 48.8048506,15.9550753 48.7319336,16.5292969 L48.7456055,16.5634766 L52.1567383,16.5634766 L52.1567383,16.3857422 C52.1567383,15.8570937 52.0154637,15.4150408 51.7329102,15.0595703 C51.4503567,14.7040998 51.03109,14.5263672 50.4750977,14.5263672 L50.4750977,14.5263672 Z M59.5600586,21 C59.5144854,20.7766916 59.4791668,20.5795907 59.4541016,20.4086914 C59.4290363,20.2377921 59.4142253,20.0657561 59.409668,19.8925781 C59.1590157,20.2480487 58.8320333,20.545409 58.4287109,20.784668 C58.0253886,21.023927 57.5913109,21.1435547 57.1264648,21.1435547 C56.3562787,21.1435547 55.7695333,20.9464538 55.3662109,20.5522461 C54.9628886,20.1580384 54.7612305,19.6145868 54.7612305,18.921875 C54.7612305,18.2154913 55.0471977,17.6629252 55.6191406,17.2641602 C56.1910836,16.8653951 56.9669547,16.6660156 57.9467773,16.6660156 L59.409668,16.6660156 L59.409668,15.9345703 C59.409668,15.5016254 59.2775078,15.1586927 59.0131836,14.9057617 C58.7488594,14.6528308 58.3751652,14.5263672 57.8920898,14.5263672 C57.459145,14.5263672 57.1070977,14.6368804 56.8359375,14.8579102 C56.5647773,15.0789399 56.4291992,15.3443995 56.4291992,15.6542969 L55.144043,15.6542969 L55.1303711,15.6132812 C55.1030272,15.0755181 55.3570937,14.5833356 55.8925781,14.1367188 C56.4280626,13.6901019 57.1196247,13.4667969 57.9672852,13.4667969 C58.805831,13.4667969 59.4803034,13.6798481 59.9907227,14.105957 C60.5011419,14.5320659 60.7563477,15.1461548 60.7563477,15.9482422 L60.7563477,19.5097656 C60.7563477,19.7740899 60.7700194,20.0292956 60.7973633,20.2753906 C60.8247072,20.5214856 60.8748369,20.7630196 60.9477539,21 L59.5600586,21 Z M57.324707,20.015625 C57.8123397,20.015625 58.2521139,19.8903007 58.644043,19.6396484 C59.035972,19.3889961 59.2911778,19.1018896 59.409668,18.7783203 L59.409668,17.5751953 L57.8989258,17.5751953 C57.3566054,17.5751953 56.9225277,17.7119127 56.5966797,17.9853516 C56.2708317,18.2587904 56.1079102,18.5800763 56.1079102,18.9492188 C56.1079102,19.2773454 56.2104482,19.5371084 56.4155273,19.7285156 C56.6206065,19.9199228 56.9236634,20.015625 57.324707,20.015625 L57.324707,20.015625 Z M64.4887695,11.8193359 L64.4887695,13.6035156 L65.8901367,13.6035156 L65.8901367,14.6015625 L64.4887695,14.6015625 L64.4887695,19.0927734 C64.4887695,19.4391293 64.5605462,19.682942 64.7041016,19.8242188 C64.847657,19.9654955 65.037922,20.0361328 65.2749023,20.0361328 C65.3523767,20.0361328 65.4378251,20.0270183 65.53125,20.0087891 C65.6246749,19.9905598 65.7078447,19.9677736 65.7807617,19.9404297 L65.9584961,20.8632812 C65.8582352,20.9453129 65.711264,21.0125323 65.5175781,21.0649414 C65.3238923,21.1173505 65.12907,21.1435547 64.9331055,21.1435547 C64.3862277,21.1435547 63.9510107,20.9783545 63.6274414,20.6479492 C63.3038721,20.3175439 63.1420898,19.7991572 63.1420898,19.0927734 L63.1420898,14.6015625 L61.9663086,14.6015625 L61.9663086,13.6035156 L63.1420898,13.6035156 L63.1420898,11.8193359 L64.4887695,11.8193359 Z M68.8979492,14.5947266 C69.1531588,14.239256 69.4664695,13.9624033 69.8378906,13.7641602 C70.2093118,13.565917 70.6206032,13.4667969 71.0717773,13.4667969 C71.8601927,13.4667969 72.4742817,13.7037737 72.9140625,14.1777344 C73.3538433,14.6516951 73.5737305,15.3808545 73.5737305,16.3652344 L73.5737305,21 L72.2270508,21 L72.2270508,16.3515625 C72.2270508,15.7408824 72.09603,15.289715 71.8339844,14.9980469 C71.5719388,14.7063787 71.1811549,14.5605469 70.6616211,14.5605469 C70.2879213,14.5605469 69.9495458,14.6482739 69.6464844,14.8237305 C69.343423,14.9991871 69.0939137,15.2373032 68.8979492,15.5380859 L68.8979492,21 L67.5512695,21 L67.5512695,10.3359375 L68.8979492,10.3359375 L68.8979492,14.5947266 Z M78.5776367,21.1435547 C77.5476837,21.1435547 76.7285187,20.8006219 76.1201172,20.1147461 C75.5117157,19.4288703 75.2075195,18.539068 75.2075195,17.4453125 L75.2075195,17.1445312 C75.2075195,16.0917916 75.5208302,15.215661 76.1474609,14.5161133 C76.7740917,13.8165655 77.5157835,13.4667969 78.3725586,13.4667969 C79.3706105,13.4667969 80.1248347,13.7675751 80.6352539,14.3691406 C81.1456731,14.9707061 81.4008789,15.7727814 81.4008789,16.7753906 L81.4008789,17.6162109 L76.6020508,17.6162109 L76.581543,17.6503906 C76.5952149,18.3613317 76.7752261,18.9457985 77.121582,19.4038086 C77.4679379,19.8618187 77.9532846,20.0908203 78.5776367,20.0908203 C79.0333682,20.0908203 79.4332665,20.0258796 79.7773438,19.8959961 C80.121421,19.7661126 80.4187813,19.5872407 80.6694336,19.359375 L81.1958008,20.234375 C80.9314765,20.4941419 80.5828472,20.7106111 80.1499023,20.8837891 C79.7169575,21.056967 79.1928742,21.1435547 78.5776367,21.1435547 L78.5776367,21.1435547 Z M78.3725586,14.5263672 C77.9213845,14.5263672 77.5362972,14.7166322 77.2172852,15.097168 C76.8982731,15.4777037 76.7023116,15.9550753 76.6293945,16.5292969 L76.6430664,16.5634766 L80.0541992,16.5634766 L80.0541992,16.3857422 C80.0541992,15.8570937 79.9129246,15.4150408 79.6303711,15.0595703 C79.3478176,14.7040998 78.928551,14.5263672 78.3725586,14.5263672 L78.3725586,14.5263672 Z M86.4116211,14.7929688 L85.7211914,14.7519531 C85.3657209,14.7519531 85.0660819,14.8362622 84.8222656,15.0048828 C84.5784493,15.1735034 84.3904629,15.4104802 84.2583008,15.7158203 L84.2583008,21 L82.9116211,21 L82.9116211,13.6035156 L84.1147461,13.6035156 L84.2446289,14.6835938 C84.4542654,14.3007793 84.7128891,14.0022797 85.0205078,13.7880859 C85.3281265,13.5738922 85.6824524,13.4667969 86.0834961,13.4667969 C86.183757,13.4667969 86.2794592,13.4747721 86.3706055,13.4907227 C86.4617518,13.5066733 86.5369463,13.5237629 86.5961914,13.5419922 L86.4116211,14.7929688 Z" id="Weather" fill="#FFFFFF"></path>
                <g id="menu" transform="translate(10.000000, 10.000000)" stroke="#FFFFFF" stroke-width="2" stroke-linecap="square">
                    <path d="M0,1 L13.1006887,1" id="Line"></path>
                    <path d="M0,6 L13.1006887,6" id="Line"></path>
                    <path d="M0,11 L13.1006887,11" id="Line"></path>
                </g>
            </g>
            <g id="Place" transform="translate(44.000000, 107.000000)">
                <g id="card">
                    <use fill="black" fill-opacity="1" filter="url(#filter-5)" xlink:href="#path-4"></use>
                    <use fill="#FFFFFF" fill-rule="evenodd" xlink:href="#path-4"></use>
                </g>
                <circle id="Oval-2" stroke="#979797" stroke-width="0.5" cx="162.5" cy="14.5" r="1.5"></circle>
                <path d="M15.0585937,21.2080078 C15.0585937,20.8824854 14.9365247,20.6098644 14.6923828,20.3901367 C14.448241,20.1704091 14.0153026,19.9856778 13.3935547,19.8359375 C12.6415978,19.6569001 12.0548524,19.3932309 11.6333008,19.0449219 C11.2117492,18.6966128 11.0009766,18.2587917 11.0009766,17.7314453 C11.0009766,17.1780571 11.2280251,16.7158222 11.6821289,16.3447266 C12.1362327,15.973631 12.7246058,15.7880859 13.4472656,15.7880859 C14.2252643,15.7880859 14.8445615,16.0013 15.3051758,16.4277344 C15.7657901,16.8541688 15.9879558,17.3489555 15.9716797,17.9121094 L15.9619141,17.9414062 L15.0439453,17.9414062 C15.0439453,17.5247375 14.9064141,17.1878268 14.6313477,16.9306641 C14.3562812,16.6735013 13.9615911,16.5449219 13.4472656,16.5449219 C12.9687476,16.5449219 12.6017265,16.6531565 12.3461914,16.8696289 C12.0906563,17.0861013 11.9628906,17.3684878 11.9628906,17.7167969 C11.9628906,18.0260432 12.1012356,18.2840159 12.3779297,18.4907227 C12.6546238,18.6974294 13.103838,18.8789055 13.7255859,19.0351562 C14.4742876,19.2207041 15.0439434,19.4941388 15.4345703,19.8554688 C15.8251973,20.2167987 16.0205078,20.6643854 16.0205078,21.1982422 C16.0205078,21.7711617 15.7861352,22.2317691 15.3173828,22.5800781 C14.8486305,22.9283872 14.2366574,23.1025391 13.4814453,23.1025391 C12.7718063,23.1025391 12.1443712,22.9104837 11.5991211,22.5263672 C11.053871,22.1422507 10.7893879,21.6279329 10.8056641,20.9833984 L10.8154297,20.9541016 L11.7333984,20.9541016 C11.7333984,21.409833 11.90104,21.7565092 12.2363281,21.9941406 C12.5716163,22.231772 12.9866512,22.3505859 13.4814453,22.3505859 C13.9664738,22.3505859 14.3505845,22.2480479 14.6337891,22.0429688 C14.9169936,21.8378896 15.0585937,21.5595721 15.0585937,21.2080078 L15.0585937,21.2080078 Z M20.4882812,23 C20.455729,22.840494 20.4305014,22.6997076 20.4125977,22.5776367 C20.3946939,22.4555658 20.3841146,22.3326829 20.3808594,22.2089844 C20.201822,22.4628919 19.9682632,22.6752921 19.6801758,22.8461914 C19.3920884,23.0170907 19.0820329,23.1025391 18.75,23.1025391 C18.199867,23.1025391 17.7807632,22.9617527 17.4926758,22.6801758 C17.2045884,22.3985989 17.0605469,22.0104191 17.0605469,21.515625 C17.0605469,21.0110652 17.2648092,20.6163751 17.6733398,20.331543 C18.0818705,20.0467108 18.6360642,19.9042969 19.3359375,19.9042969 L20.3808594,19.9042969 L20.3808594,19.3818359 C20.3808594,19.0725896 20.2864593,18.8276376 20.0976562,18.6469727 C19.9088532,18.4663077 19.6419288,18.3759766 19.296875,18.3759766 C18.9876287,18.3759766 18.7361663,18.4549146 18.5424805,18.612793 C18.3487946,18.7706714 18.2519531,18.9602854 18.2519531,19.1816406 L17.3339844,19.1816406 L17.3242188,19.1523438 C17.3046874,18.7682272 17.4861635,18.4166683 17.8686523,18.0976562 C18.2511412,17.7786442 18.7451142,17.6191406 19.3505859,17.6191406 C19.9495473,17.6191406 20.4313133,17.7713201 20.7958984,18.0756836 C21.1604836,18.3800471 21.3427734,18.818682 21.3427734,19.3916016 L21.3427734,21.9355469 C21.3427734,22.1243499 21.352539,22.3066397 21.3720703,22.4824219 C21.3916017,22.658204 21.4274086,22.8307283 21.4794922,23 L20.4882812,23 Z M18.8916016,22.296875 C19.2399106,22.296875 19.5540351,22.2073577 19.8339844,22.0283203 C20.1139337,21.849283 20.2962235,21.6442069 20.3808594,21.4130859 L20.3808594,20.5537109 L19.3017578,20.5537109 C18.9143861,20.5537109 18.6043306,20.6513662 18.371582,20.8466797 C18.1388335,21.0419932 18.0224609,21.2714831 18.0224609,21.5351562 C18.0224609,21.7695324 18.0957024,21.9550774 18.2421875,22.0917969 C18.3886726,22.2285163 18.6051418,22.296875 18.8916016,22.296875 L18.8916016,22.296875 Z M23.5986328,17.7167969 L23.6669922,18.5029297 C23.8427743,18.2229804 24.0633125,18.0056974 24.3286133,17.8510742 C24.5939141,17.696451 24.8958316,17.6191406 25.234375,17.6191406 C25.8040393,17.6191406 26.2451156,17.7859684 26.5576172,18.1196289 C26.8701187,18.4532894 27.0263672,18.968421 27.0263672,19.6650391 L27.0263672,23 L26.0644531,23 L26.0644531,19.6845703 C26.0644531,19.2190732 25.9724944,18.8886729 25.7885742,18.6933594 C25.604654,18.4980459 25.3238951,18.4003906 24.9462891,18.4003906 C24.669595,18.4003906 24.424643,18.4671217 24.2114258,18.6005859 C23.9982086,18.7340501 23.8281256,18.91634 23.7011719,19.1474609 L23.7011719,23 L22.7392578,23 L22.7392578,17.7167969 L23.5986328,17.7167969 Z M35.2929688,19.8554688 L32.0507812,19.8554688 L32.0507812,23 L31.0888672,23 L31.0888672,15.890625 L35.7910156,15.890625 L35.7910156,16.6474609 L32.0507812,16.6474609 L32.0507812,19.0986328 L35.2929688,19.0986328 L35.2929688,19.8554688 Z M39.2333984,18.5664062 L38.7402344,18.5371094 C38.4863269,18.5371094 38.272299,18.5973301 38.0981445,18.7177734 C37.92399,18.8382167 37.789714,19.0074859 37.6953125,19.2255859 L37.6953125,23 L36.7333984,23 L36.7333984,17.7167969 L37.5927734,17.7167969 L37.6855469,18.4882812 C37.8352872,18.2148424 38.0200184,18.0016284 38.2397461,17.8486328 C38.4594738,17.6956373 38.7125637,17.6191406 38.9990234,17.6191406 C39.0706384,17.6191406 39.1389971,17.6248372 39.2041016,17.6362305 C39.2692061,17.6476238 39.3229165,17.6598307 39.3652344,17.6728516 L39.2333984,18.5664062 Z M43.4082031,23 C43.3756509,22.840494 43.3504233,22.6997076 43.3325195,22.5776367 C43.3146158,22.4555658 43.3040365,22.3326829 43.3007812,22.2089844 C43.1217439,22.4628919 42.888185,22.6752921 42.6000977,22.8461914 C42.3120103,23.0170907 42.0019548,23.1025391 41.6699219,23.1025391 C41.1197889,23.1025391 40.700685,22.9617527 40.4125977,22.6801758 C40.1245103,22.3985989 39.9804688,22.0104191 39.9804688,21.515625 C39.9804688,21.0110652 40.184731,20.6163751 40.5932617,20.331543 C41.0017924,20.0467108 41.5559861,19.9042969 42.2558594,19.9042969 L43.3007812,19.9042969 L43.3007812,19.3818359 C43.3007812,19.0725896 43.2063812,18.8276376 43.0175781,18.6469727 C42.8287751,18.4663077 42.5618507,18.3759766 42.2167969,18.3759766 C41.9075505,18.3759766 41.6560882,18.4549146 41.4624023,18.612793 C41.2687165,18.7706714 41.171875,18.9602854 41.171875,19.1816406 L40.2539062,19.1816406 L40.2441406,19.1523438 C40.2246093,18.7682272 40.4060853,18.4166683 40.7885742,18.0976562 C41.1710631,17.7786442 41.665036,17.6191406 42.2705078,17.6191406 C42.8694691,17.6191406 43.3512352,17.7713201 43.7158203,18.0756836 C44.0804055,18.3800471 44.2626953,18.818682 44.2626953,19.3916016 L44.2626953,21.9355469 C44.2626953,22.1243499 44.2724608,22.3066397 44.2919922,22.4824219 C44.3115235,22.658204 44.3473305,22.8307283 44.3994141,23 L43.4082031,23 Z M41.8115234,22.296875 C42.1598325,22.296875 42.4739569,22.2073577 42.7539062,22.0283203 C43.0338556,21.849283 43.2161454,21.6442069 43.3007812,21.4130859 L43.3007812,20.5537109 L42.2216797,20.5537109 C41.834308,20.5537109 41.5242525,20.6513662 41.2915039,20.8466797 C41.0587553,21.0419932 40.9423828,21.2714831 40.9423828,21.5351562 C40.9423828,21.7695324 41.0156243,21.9550774 41.1621094,22.0917969 C41.3085945,22.2285163 41.5250637,22.296875 41.8115234,22.296875 L41.8115234,22.296875 Z M46.5185547,17.7167969 L46.5869141,18.5029297 C46.7626962,18.2229804 46.9832344,18.0056974 47.2485352,17.8510742 C47.513836,17.696451 47.8157535,17.6191406 48.1542969,17.6191406 C48.7239612,17.6191406 49.1650375,17.7859684 49.4775391,18.1196289 C49.7900406,18.4532894 49.9462891,18.968421 49.9462891,19.6650391 L49.9462891,23 L48.984375,23 L48.984375,19.6845703 C48.984375,19.2190732 48.8924163,18.8886729 48.7084961,18.6933594 C48.5245759,18.4980459 48.243817,18.4003906 47.8662109,18.4003906 C47.5895168,18.4003906 47.3445649,18.4671217 47.1313477,18.6005859 C46.9181304,18.7340501 46.7480475,18.91634 46.6210938,19.1474609 L46.6210938,23 L45.6591797,23 L45.6591797,17.7167969 L46.5185547,17.7167969 Z M53.4912109,22.3505859 C53.8102229,22.3505859 54.0909819,22.2521169 54.3334961,22.0551758 C54.5760103,21.8582347 54.6972656,21.6165379 54.6972656,21.3300781 L55.5615234,21.3300781 L55.5712891,21.359375 C55.5875652,21.8151064 55.3849305,22.219562 54.9633789,22.5727539 C54.5418273,22.9259458 54.0511096,23.1025391 53.4912109,23.1025391 C52.7229779,23.1025391 52.1354187,22.8518905 51.7285156,22.3505859 C51.3216125,21.8492813 51.1181641,21.2194048 51.1181641,20.4609375 L51.1181641,20.2558594 C51.1181641,19.5039025 51.3224263,18.8764674 51.730957,18.3735352 C52.1394877,17.870603 52.7262332,17.6191406 53.4912109,17.6191406 C54.1097036,17.6191406 54.6150697,17.8014305 55.0073242,18.1660156 C55.3995788,18.5306008 55.5891928,18.9781875 55.5761719,19.5087891 L55.5664062,19.5380859 L54.6972656,19.5380859 C54.6972656,19.2158187 54.5833345,18.9415701 54.3554688,18.715332 C54.127603,18.4890939 53.83952,18.3759766 53.4912109,18.3759766 C52.9866511,18.3759766 52.6261404,18.5574526 52.409668,18.9204102 C52.1931955,19.2833677 52.0849609,19.728513 52.0849609,20.2558594 L52.0849609,20.4609375 C52.0849609,21.0013048 52.1923817,21.4513328 52.4072266,21.8110352 C52.6220714,22.1707375 52.9833959,22.3505859 53.4912109,22.3505859 L53.4912109,22.3505859 Z M57.6904297,23 L56.7285156,23 L56.7285156,17.7167969 L57.6904297,17.7167969 L57.6904297,23 Z M57.6904297,16.3642578 L56.7285156,16.3642578 L56.7285156,15.3828125 L57.6904297,15.3828125 L57.6904297,16.3642578 Z M62.2412109,21.5986328 C62.2412109,21.3870432 62.1606453,21.2128913 61.9995117,21.0761719 C61.8383781,20.9394524 61.5332054,20.8206385 61.0839844,20.7197266 C60.4427051,20.5797519 59.9601253,20.3901379 59.6362305,20.1508789 C59.3123356,19.9116199 59.1503906,19.5852885 59.1503906,19.171875 C59.1503906,18.7421854 59.3326805,18.3759781 59.6972656,18.0732422 C60.0618508,17.7705063 60.5371064,17.6191406 61.1230469,17.6191406 C61.7382843,17.6191406 62.2273745,17.7770167 62.590332,18.0927734 C62.9532896,18.4085302 63.1266277,18.792641 63.1103516,19.2451172 L63.1005859,19.2744141 L62.1826172,19.2744141 C62.1826172,19.0432931 62.0857757,18.8357757 61.8920898,18.6518555 C61.698404,18.4679353 61.4420589,18.3759766 61.1230469,18.3759766 C60.7812483,18.3759766 60.5273446,18.4508456 60.3613281,18.6005859 C60.1953117,18.7503263 60.1123047,18.9309885 60.1123047,19.1425781 C60.1123047,19.3509125 60.1855461,19.5152989 60.3320312,19.6357422 C60.4785164,19.7561855 60.7763649,19.8636063 61.2255859,19.9580078 C61.892907,20.1012377 62.3893213,20.2957344 62.7148437,20.5415039 C63.0403662,20.7872734 63.203125,21.1168599 63.203125,21.5302734 C63.203125,21.9990258 63.013511,22.3782538 62.6342773,22.6679688 C62.2550437,22.9576837 61.7594432,23.1025391 61.1474609,23.1025391 C60.4736294,23.1025391 59.9430358,22.9316423 59.5556641,22.5898438 C59.1682923,22.2480452 58.9843749,21.8492861 59.0039062,21.3935547 L59.0136719,21.3642578 L59.9316406,21.3642578 C59.9479167,21.7060564 60.0748686,21.9558911 60.3125,22.1137695 C60.5501314,22.2716479 60.8284489,22.3505859 61.1474609,22.3505859 C61.4892595,22.3505859 61.7569977,22.2814135 61.9506836,22.1430664 C62.1443695,22.0047194 62.2412109,21.8232433 62.2412109,21.5986328 L62.2412109,21.5986328 Z M66.5478516,22.3505859 C66.8668636,22.3505859 67.1476225,22.2521169 67.3901367,22.0551758 C67.632651,21.8582347 67.7539062,21.6165379 67.7539062,21.3300781 L68.6181641,21.3300781 L68.6279297,21.359375 C68.6442058,21.8151064 68.4415711,22.219562 68.0200195,22.5727539 C67.5984679,22.9259458 67.1077502,23.1025391 66.5478516,23.1025391 C65.7796186,23.1025391 65.1920593,22.8518905 64.7851562,22.3505859 C64.3782532,21.8492813 64.1748047,21.2194048 64.1748047,20.4609375 L64.1748047,20.2558594 C64.1748047,19.5039025 64.379067,18.8764674 64.7875977,18.3735352 C65.1961283,17.870603 65.7828738,17.6191406 66.5478516,17.6191406 C67.1663442,17.6191406 67.6717103,17.8014305 68.0639648,18.1660156 C68.4562194,18.5306008 68.6458334,18.9781875 68.6328125,19.5087891 L68.6230469,19.5380859 L67.7539062,19.5380859 C67.7539062,19.2158187 67.6399751,18.9415701 67.4121094,18.715332 C67.1842437,18.4890939 66.8961606,18.3759766 66.5478516,18.3759766 C66.0432917,18.3759766 65.682781,18.5574526 65.4663086,18.9204102 C65.2498362,19.2833677 65.1416016,19.728513 65.1416016,20.2558594 L65.1416016,20.4609375 C65.1416016,21.0013048 65.2490224,21.4513328 65.4638672,21.8110352 C65.678712,22.1707375 66.0400365,22.3505859 66.5478516,22.3505859 L66.5478516,22.3505859 Z M69.4824219,20.3095703 C69.4824219,19.5283164 69.6940083,18.8846054 70.1171875,18.378418 C70.5403667,17.8722305 71.1149052,17.6191406 71.8408203,17.6191406 C72.5732458,17.6191406 73.1518533,17.8714167 73.5766602,18.3759766 C74.001467,18.8805364 74.2138672,19.5250612 74.2138672,20.3095703 L74.2138672,20.4169922 C74.2138672,21.2047565 74.0022808,21.8492813 73.5791016,22.3505859 C73.1559224,22.8518905 72.5797563,23.1025391 71.8505859,23.1025391 C71.1214156,23.1025391 70.5444357,22.8510767 70.1196289,22.3481445 C69.6948221,21.8452123 69.4824219,21.2015013 69.4824219,20.4169922 L69.4824219,20.3095703 Z M70.4443359,20.4169922 C70.4443359,20.9768908 70.5623361,21.4391258 70.7983398,21.8037109 C71.0343436,22.1682961 71.3850888,22.3505859 71.8505859,22.3505859 C72.3095726,22.3505859 72.6578764,22.1682961 72.8955078,21.8037109 C73.1331392,21.4391258 73.2519531,20.9768908 73.2519531,20.4169922 L73.2519531,20.3095703 C73.2519531,19.7561821 73.1323254,19.2955748 72.8930664,18.9277344 C72.6538074,18.559894 72.3030622,18.3759766 71.8408203,18.3759766 C71.3818336,18.3759766 71.0343436,18.559894 70.7983398,18.9277344 C70.5623361,19.2955748 70.4443359,19.7561821 70.4443359,20.3095703 L70.4443359,20.4169922 Z" id="San-Francisco" fill="#949494"></path>
                <path d="M140.261719,20.5644531 L141.052734,12.78125 L147.957031,12.78125 L147.957031,13.8652344 L142.048828,13.8652344 L141.521484,18.9335938 C141.879559,18.6080713 142.273435,18.3574228 142.703125,18.1816406 C143.132815,18.0058585 143.715491,17.9082032 144.451172,17.8886719 C145.662115,17.8691405 146.638668,18.2760375 147.380859,19.109375 C148.123051,19.9427125 148.494141,21.062493 148.494141,22.46875 C148.494141,23.9075593 148.134444,25.0566363 147.415039,25.9160156 C146.695634,26.7753949 145.613288,27.2050781 144.167969,27.2050781 C142.996088,27.2050781 142.019535,26.877933 141.238281,26.2236328 C140.457027,25.5693327 140.082682,24.6009179 140.115234,23.3183594 L140.134766,23.2597656 L141.179688,23.2597656 C141.179688,24.2168017 141.451495,24.9492162 141.995117,25.4570312 C142.53874,25.9648463 143.263016,26.21875 144.167969,26.21875 C145.222662,26.21875 146.012042,25.8997428 146.536133,25.2617188 C147.060224,24.6236947 147.322266,23.6992248 147.322266,22.4882812 C147.322266,21.427078 147.060224,20.5758496 146.536133,19.9345703 C146.012042,19.2932911 145.278,18.9726562 144.333984,18.9726562 C143.422521,18.9726562 142.727541,19.1175116 142.249023,19.4072266 C141.770505,19.6969416 141.423829,20.1347627 141.208984,20.7207031 L140.261719,20.5644531 Z M151.345703,20.5644531 L152.136719,12.78125 L159.041016,12.78125 L159.041016,13.8652344 L153.132812,13.8652344 L152.605469,18.9335938 C152.963543,18.6080713 153.35742,18.3574228 153.787109,18.1816406 C154.216799,18.0058585 154.799475,17.9082032 155.535156,17.8886719 C156.7461,17.8691405 157.722653,18.2760375 158.464844,19.109375 C159.207035,19.9427125 159.578125,21.062493 159.578125,22.46875 C159.578125,23.9075593 159.218428,25.0566363 158.499023,25.9160156 C157.779619,26.7753949 156.697273,27.2050781 155.251953,27.2050781 C154.080072,27.2050781 153.10352,26.877933 152.322266,26.2236328 C151.541012,25.5693327 151.166667,24.6009179 151.199219,23.3183594 L151.21875,23.2597656 L152.263672,23.2597656 C152.263672,24.2168017 152.535479,24.9492162 153.079102,25.4570312 C153.622724,25.9648463 154.347001,26.21875 155.251953,26.21875 C156.306646,26.21875 157.096026,25.8997428 157.620117,25.2617188 C158.144208,24.6236947 158.40625,23.6992248 158.40625,22.4882812 C158.40625,21.427078 158.144208,20.5758496 157.620117,19.9345703 C157.096026,19.2932911 156.361984,18.9726562 155.417969,18.9726562 C154.506506,18.9726562 153.811526,19.1175116 153.333008,19.4072266 C152.85449,19.6969416 152.507814,20.1347627 152.292969,20.7207031 L151.345703,20.5644531 Z" id="55" fill="#949494"></path>
            </g>
            <g id="Place" transform="translate(44.000000, 155.000000)">
                <g id="card">
                    <use fill="black" fill-opacity="1" filter="url(#filter-7)" xlink:href="#path-6"></use>
                    <use fill="#FFFFFF" fill-rule="evenodd" xlink:href="#path-6"></use>
                </g>
                <circle id="Oval-2" stroke="#979797" stroke-width="0.5" cx="162.5" cy="14.5" r="1.5"></circle>
                <path d="M16.3461914,23 L15.3842773,23 L11.9614258,17.5019531 L11.9321289,17.5117188 L11.9321289,23 L10.9702148,23 L10.9702148,15.890625 L11.9321289,15.890625 L15.3549805,21.3789062 L15.3842773,21.3691406 L15.3842773,15.890625 L16.3461914,15.890625 L16.3461914,23 Z M20.1157227,23.1025391 C19.3800419,23.1025391 18.794924,22.8575871 18.3603516,22.3676758 C17.9257791,21.8777645 17.7084961,21.2421914 17.7084961,20.4609375 L17.7084961,20.2460938 C17.7084961,19.4941369 17.9322894,18.8683293 18.3798828,18.3686523 C18.8274762,17.8689754 19.3572561,17.6191406 19.9692383,17.6191406 C20.6821325,17.6191406 21.2208641,17.8339822 21.5854492,18.2636719 C21.9500344,18.6933615 22.1323242,19.2662725 22.1323242,19.9824219 L22.1323242,20.5830078 L18.7045898,20.5830078 L18.6899414,20.6074219 C18.6997071,21.1152369 18.8282865,21.5327132 19.0756836,21.8598633 C19.3230807,22.1870134 19.6697569,22.3505859 20.1157227,22.3505859 C20.4412451,22.3505859 20.7268868,22.3041997 20.9726562,22.2114258 C21.2184257,22.1186519 21.4308259,21.9908862 21.6098633,21.828125 L21.9858398,22.453125 C21.7970368,22.6386728 21.5480159,22.7932937 21.2387695,22.9169922 C20.9295232,23.0406907 20.555178,23.1025391 20.1157227,23.1025391 L20.1157227,23.1025391 Z M19.9692383,18.3759766 C19.646971,18.3759766 19.3719087,18.5118802 19.144043,18.7836914 C18.9161772,19.0555027 18.7762047,19.3964823 18.7241211,19.8066406 L18.7338867,19.8310547 L21.1704102,19.8310547 L21.1704102,19.7041016 C21.1704102,19.3264955 21.0694997,19.0107435 20.8676758,18.7568359 C20.6658519,18.5029284 20.3663757,18.3759766 19.9692383,18.3759766 L19.9692383,18.3759766 Z M24.5639648,21.0761719 L24.6762695,21.7158203 L24.7055664,21.7158203 L24.8422852,21.0761719 L25.8969727,17.7167969 L26.668457,17.7167969 L27.7280273,21.0761719 L27.8793945,21.7890625 L27.9086914,21.7890625 L28.050293,21.0761719 L28.8803711,17.7167969 L29.8374023,17.7167969 L28.3041992,23 L27.527832,23 L26.5073242,19.7822266 L26.2875977,18.8837891 L26.2583008,18.8886719 L26.0483398,19.7822266 L25.0424805,23 L24.2661133,23 L22.7329102,17.7167969 L23.6899414,17.7167969 L24.5639648,21.0761719 Z M35.6186523,19.5039062 L37.4741211,15.890625 L38.5727539,15.890625 L36.0776367,20.5 L36.0776367,23 L35.1206055,23 L35.1206055,20.4365234 L32.6645508,15.890625 L33.7631836,15.890625 L35.6186523,19.5039062 Z M39.144043,20.3095703 C39.144043,19.5283164 39.3556294,18.8846054 39.7788086,18.378418 C40.2019878,17.8722305 40.7765263,17.6191406 41.5024414,17.6191406 C42.2348669,17.6191406 42.8134744,17.8714167 43.2382812,18.3759766 C43.6630881,18.8805364 43.8754883,19.5250612 43.8754883,20.3095703 L43.8754883,20.4169922 C43.8754883,21.2047565 43.6639019,21.8492813 43.2407227,22.3505859 C42.8175435,22.8518905 42.2413773,23.1025391 41.512207,23.1025391 C40.7830367,23.1025391 40.2060568,22.8510767 39.78125,22.3481445 C39.3564432,21.8452123 39.144043,21.2015013 39.144043,20.4169922 L39.144043,20.3095703 Z M40.105957,20.4169922 C40.105957,20.9768908 40.2239572,21.4391258 40.4599609,21.8037109 C40.6959647,22.1682961 41.0467099,22.3505859 41.512207,22.3505859 C41.9711937,22.3505859 42.3194975,22.1682961 42.5571289,21.8037109 C42.7947603,21.4391258 42.9135742,20.9768908 42.9135742,20.4169922 L42.9135742,20.3095703 C42.9135742,19.7561821 42.7939465,19.2955748 42.5546875,18.9277344 C42.3154285,18.559894 41.9646833,18.3759766 41.5024414,18.3759766 C41.0434547,18.3759766 40.6959647,18.559894 40.4599609,18.9277344 C40.2239572,19.2955748 40.105957,19.7561821 40.105957,20.3095703 L40.105957,20.4169922 Z M47.5522461,18.5664062 L47.059082,18.5371094 C46.8051745,18.5371094 46.5911467,18.5973301 46.4169922,18.7177734 C46.2428377,18.8382167 46.1085617,19.0074859 46.0141602,19.2255859 L46.0141602,23 L45.0522461,23 L45.0522461,17.7167969 L45.9116211,17.7167969 L46.0043945,18.4882812 C46.1541349,18.2148424 46.3388661,18.0016284 46.5585938,17.8486328 C46.7783214,17.6956373 47.0314113,17.6191406 47.3178711,17.6191406 C47.389486,17.6191406 47.4578447,17.6248372 47.5229492,17.6362305 C47.5880537,17.6476238 47.6417641,17.6598307 47.684082,17.6728516 L47.5522461,18.5664062 Z M50.0717773,20.5634766 L49.4467773,20.5634766 L49.4467773,23 L48.4848633,23 L48.4848633,15.3828125 L49.4467773,15.3828125 L49.4467773,19.796875 L50.0620117,19.796875 L51.5073242,17.7167969 L52.659668,17.7167969 L50.8530273,20.1191406 L52.918457,23 L51.7856445,23 L50.0717773,20.5634766 Z" id="New-York" fill="#949494"></path>
                <path d="M146.921875,22.4199219 L149.148438,22.4199219 L149.148438,23.40625 L146.921875,23.40625 L146.921875,27 L145.759766,27 L145.759766,23.40625 L139.089844,23.40625 L139.089844,22.7421875 L145.642578,12.78125 L146.921875,12.78125 L146.921875,22.4199219 Z M140.476562,22.4199219 L145.759766,22.4199219 L145.759766,14.3144531 L145.701172,14.2949219 L145.203125,15.359375 L140.476562,22.4199219 Z M159.226562,16.4433594 C159.226562,17.2115924 159.001955,17.8837862 158.552734,18.4599609 C158.103513,19.0361357 157.504561,19.4544258 156.755859,19.7148438 C157.621749,19.9817722 158.316729,20.4261037 158.84082,21.0478516 C159.364911,21.6695995 159.626953,22.3971313 159.626953,23.2304688 C159.626953,24.5065168 159.200525,25.4879523 158.347656,26.1748047 C157.494787,26.8616571 156.397793,27.2050781 155.056641,27.2050781 C153.689446,27.2050781 152.584314,26.8632847 151.741211,26.1796875 C150.898108,25.4960903 150.476562,24.5130272 150.476562,23.2304688 C150.476562,22.3906208 150.733721,21.6598338 151.248047,21.0380859 C151.762372,20.416338 152.45247,19.9720065 153.318359,19.7050781 C152.569658,19.4446602 151.975588,19.0279977 151.536133,18.4550781 C151.096677,17.8821586 150.876953,17.2115924 150.876953,16.4433594 C150.876953,15.2193949 151.262691,14.2688836 152.03418,13.5917969 C152.805668,12.9147102 153.806634,12.5761719 155.037109,12.5761719 C156.261074,12.5761719 157.265296,12.9163377 158.049805,13.5966797 C158.834314,14.2770216 159.226562,15.2259054 159.226562,16.4433594 L159.226562,16.4433594 Z M158.455078,23.2402344 C158.455078,22.3417924 158.129561,21.6110054 157.478516,21.0478516 C156.827471,20.4846977 156.013677,20.203125 155.037109,20.203125 C154.047521,20.203125 153.233727,20.4846977 152.595703,21.0478516 C151.957679,21.6110054 151.638672,22.3417924 151.638672,23.2402344 C151.638672,24.1712286 151.954424,24.900388 152.585938,25.4277344 C153.217451,25.9550808 154.041011,26.21875 155.056641,26.21875 C156.046229,26.21875 156.860023,25.9534532 157.498047,25.4228516 C158.136071,24.89225 158.455078,24.1647182 158.455078,23.2402344 L158.455078,23.2402344 Z M158.054688,16.4335938 C158.054688,15.6132771 157.766604,14.9313178 157.19043,14.3876953 C156.614255,13.8440728 155.896489,13.5722656 155.037109,13.5722656 C154.158199,13.5722656 153.438805,13.8326797 152.878906,14.3535156 C152.319008,14.8743516 152.039062,15.567704 152.039062,16.4335938 C152.039062,17.2734417 152.320635,17.9456355 152.883789,18.4501953 C153.446943,18.9547551 154.17122,19.2070312 155.056641,19.2070312 C155.92253,19.2070312 156.638669,18.9547551 157.205078,18.4501953 C157.771487,17.9456355 158.054688,17.2734417 158.054688,16.4335938 L158.054688,16.4335938 Z" id="48" fill="#949494"></path>
            </g>
            <g id="Place" transform="translate(44.000000, 204.000000)">
                <g id="card">
                    <use fill="black" fill-opacity="1" filter="url(#filter-9)" xlink:href="#path-8"></use>
                    <use fill="#FFFFFF" fill-rule="evenodd" xlink:href="#path-8"></use>
                </g>
                <circle id="Oval-2" stroke="#979797" stroke-width="0.5" cx="162.5" cy="14.5" r="1.5"></circle>
                <path d="M15.9541016,15.6474609 L13.6689453,15.6474609 L13.6689453,22 L12.7070312,22 L12.7070312,15.6474609 L10.4267578,15.6474609 L10.4267578,14.890625 L15.9541016,14.890625 L15.9541016,15.6474609 Z M16.59375,19.3095703 C16.59375,18.5283164 16.8053364,17.8846054 17.2285156,17.378418 C17.6516948,16.8722305 18.2262333,16.6191406 18.9521484,16.6191406 C19.684574,16.6191406 20.2631815,16.8714167 20.6879883,17.3759766 C21.1127951,17.8805364 21.3251953,18.5250612 21.3251953,19.3095703 L21.3251953,19.4169922 C21.3251953,20.2047565 21.1136089,20.8492813 20.6904297,21.3505859 C20.2672505,21.8518905 19.6910844,22.1025391 18.9619141,22.1025391 C18.2327438,22.1025391 17.6557638,21.8510767 17.230957,21.3481445 C16.8061502,20.8452123 16.59375,20.2015013 16.59375,19.4169922 L16.59375,19.3095703 Z M17.5556641,19.4169922 C17.5556641,19.9768908 17.6736642,20.4391258 17.909668,20.8037109 C18.1456718,21.1682961 18.4964169,21.3505859 18.9619141,21.3505859 C19.4209007,21.3505859 19.7692045,21.1682961 20.0068359,20.8037109 C20.2444673,20.4391258 20.3632812,19.9768908 20.3632812,19.4169922 L20.3632812,19.3095703 C20.3632812,18.7561821 20.2436535,18.2955748 20.0043945,17.9277344 C19.7651355,17.559894 19.4143903,17.3759766 18.9521484,17.3759766 C18.4931618,17.3759766 18.1456718,17.559894 17.909668,17.9277344 C17.6736642,18.2955748 17.5556641,18.7561821 17.5556641,19.3095703 L17.5556641,19.4169922 Z M25.0019531,17.5664062 L24.5087891,17.5371094 C24.2548815,17.5371094 24.0408537,17.5973301 23.8666992,17.7177734 C23.6925447,17.8382167 23.5582687,18.0074859 23.4638672,18.2255859 L23.4638672,22 L22.5019531,22 L22.5019531,16.7167969 L23.3613281,16.7167969 L23.4541016,17.4882812 C23.6038419,17.2148424 23.7885731,17.0016284 24.0083008,16.8486328 C24.2280284,16.6956373 24.4811184,16.6191406 24.7675781,16.6191406 C24.8391931,16.6191406 24.9075518,16.6248372 24.9726562,16.6362305 C25.0377607,16.6476238 25.0914711,16.6598307 25.1337891,16.6728516 L25.0019531,17.5664062 Z M25.7050781,19.3095703 C25.7050781,18.5283164 25.9166646,17.8846054 26.3398438,17.378418 C26.7630229,16.8722305 27.3375615,16.6191406 28.0634766,16.6191406 C28.7959021,16.6191406 29.3745096,16.8714167 29.7993164,17.3759766 C30.2241232,17.8805364 30.4365234,18.5250612 30.4365234,19.3095703 L30.4365234,19.4169922 C30.4365234,20.2047565 30.224937,20.8492813 29.8017578,21.3505859 C29.3785786,21.8518905 28.8024125,22.1025391 28.0732422,22.1025391 C27.3440719,22.1025391 26.767092,21.8510767 26.3422852,21.3481445 C25.9174783,20.8452123 25.7050781,20.2015013 25.7050781,19.4169922 L25.7050781,19.3095703 Z M26.6669922,19.4169922 C26.6669922,19.9768908 26.7849923,20.4391258 27.0209961,20.8037109 C27.2569999,21.1682961 27.6077451,21.3505859 28.0732422,21.3505859 C28.5322289,21.3505859 28.8805327,21.1682961 29.1181641,20.8037109 C29.3557955,20.4391258 29.4746094,19.9768908 29.4746094,19.4169922 L29.4746094,19.3095703 C29.4746094,18.7561821 29.3549817,18.2955748 29.1157227,17.9277344 C28.8764636,17.559894 28.5257185,17.3759766 28.0634766,17.3759766 C27.6044899,17.3759766 27.2569999,17.559894 27.0209961,17.9277344 C26.7849923,18.2955748 26.6669922,18.7561821 26.6669922,19.3095703 L26.6669922,19.4169922 Z M32.4726562,16.7167969 L32.5410156,17.5029297 C32.7167978,17.2229804 32.9373359,17.0056974 33.2026367,16.8510742 C33.4679375,16.696451 33.7698551,16.6191406 34.1083984,16.6191406 C34.6780627,16.6191406 35.1191391,16.7859684 35.4316406,17.1196289 C35.7441422,17.4532894 35.9003906,17.968421 35.9003906,18.6650391 L35.9003906,22 L34.9384766,22 L34.9384766,18.6845703 C34.9384766,18.2190732 34.8465178,17.8886729 34.6625977,17.6933594 C34.4786775,17.4980459 34.1979186,17.4003906 33.8203125,17.4003906 C33.5436184,17.4003906 33.2986664,17.4671217 33.0854492,17.6005859 C32.872232,17.7340501 32.7021491,17.91634 32.5751953,18.1474609 L32.5751953,22 L31.6132812,22 L31.6132812,16.7167969 L32.4726562,16.7167969 Z M38.5664062,15.4423828 L38.5664062,16.7167969 L39.5673828,16.7167969 L39.5673828,17.4296875 L38.5664062,17.4296875 L38.5664062,20.6376953 C38.5664062,20.8850924 38.6176753,21.0592443 38.7202148,21.1601562 C38.8227544,21.2610682 38.958658,21.3115234 39.1279297,21.3115234 C39.1832685,21.3115234 39.2443031,21.3050131 39.3110352,21.2919922 C39.3777673,21.2789713 39.4371742,21.2626954 39.4892578,21.2431641 L39.6162109,21.9023438 C39.544596,21.9609378 39.4396166,22.0089516 39.3012695,22.0463867 C39.1629225,22.0838218 39.0237637,22.1025391 38.8837891,22.1025391 C38.4931621,22.1025391 38.1822928,21.9845389 37.9511719,21.7485352 C37.7200509,21.5125314 37.6044922,21.1422551 37.6044922,20.6376953 L37.6044922,17.4296875 L36.7646484,17.4296875 L36.7646484,16.7167969 L37.6044922,16.7167969 L37.6044922,15.4423828 L38.5664062,15.4423828 Z M40.5292969,19.3095703 C40.5292969,18.5283164 40.7408833,17.8846054 41.1640625,17.378418 C41.5872417,16.8722305 42.1617802,16.6191406 42.8876953,16.6191406 C43.6201208,16.6191406 44.1987283,16.8714167 44.6235352,17.3759766 C45.048342,17.8805364 45.2607422,18.5250612 45.2607422,19.3095703 L45.2607422,19.4169922 C45.2607422,20.2047565 45.0491558,20.8492813 44.6259766,21.3505859 C44.2027974,21.8518905 43.6266313,22.1025391 42.8974609,22.1025391 C42.1682906,22.1025391 41.5913107,21.8510767 41.1665039,21.3481445 C40.7416971,20.8452123 40.5292969,20.2015013 40.5292969,19.4169922 L40.5292969,19.3095703 Z M41.4912109,19.4169922 C41.4912109,19.9768908 41.6092111,20.4391258 41.8452148,20.8037109 C42.0812186,21.1682961 42.4319638,21.3505859 42.8974609,21.3505859 C43.3564476,21.3505859 43.7047514,21.1682961 43.9423828,20.8037109 C44.1800142,20.4391258 44.2988281,19.9768908 44.2988281,19.4169922 L44.2988281,19.3095703 C44.2988281,18.7561821 44.1792004,18.2955748 43.9399414,17.9277344 C43.7006824,17.559894 43.3499372,17.3759766 42.8876953,17.3759766 C42.4287086,17.3759766 42.0812186,17.559894 41.8452148,17.9277344 C41.6092111,18.2955748 41.4912109,18.7561821 41.4912109,19.3095703 L41.4912109,19.4169922 Z" id="Toronto" fill="#949494"></path>
                <path d="M146.921875,22.4199219 L149.148438,22.4199219 L149.148438,23.40625 L146.921875,23.40625 L146.921875,27 L145.759766,27 L145.759766,23.40625 L139.089844,23.40625 L139.089844,22.7421875 L145.642578,12.78125 L146.921875,12.78125 L146.921875,22.4199219 Z M140.476562,22.4199219 L145.759766,22.4199219 L145.759766,14.3144531 L145.701172,14.2949219 L145.203125,15.359375 L140.476562,22.4199219 Z M151.345703,20.5644531 L152.136719,12.78125 L159.041016,12.78125 L159.041016,13.8652344 L153.132812,13.8652344 L152.605469,18.9335938 C152.963543,18.6080713 153.35742,18.3574228 153.787109,18.1816406 C154.216799,18.0058585 154.799475,17.9082032 155.535156,17.8886719 C156.7461,17.8691405 157.722653,18.2760375 158.464844,19.109375 C159.207035,19.9427125 159.578125,21.062493 159.578125,22.46875 C159.578125,23.9075593 159.218428,25.0566363 158.499023,25.9160156 C157.779619,26.7753949 156.697273,27.2050781 155.251953,27.2050781 C154.080072,27.2050781 153.10352,26.877933 152.322266,26.2236328 C151.541012,25.5693327 151.166667,24.6009179 151.199219,23.3183594 L151.21875,23.2597656 L152.263672,23.2597656 C152.263672,24.2168017 152.535479,24.9492162 153.079102,25.4570312 C153.622724,25.9648463 154.347001,26.21875 155.251953,26.21875 C156.306646,26.21875 157.096026,25.8997428 157.620117,25.2617188 C158.144208,24.6236947 158.40625,23.6992248 158.40625,22.4882812 C158.40625,21.427078 158.144208,20.5758496 157.620117,19.9345703 C157.096026,19.2932911 156.361984,18.9726562 155.417969,18.9726562 C154.506506,18.9726562 153.811526,19.1175116 153.333008,19.4072266 C152.85449,19.6969416 152.507814,20.1347627 152.292969,20.7207031 L151.345703,20.5644531 Z" id="45" fill="#949494"></path>
            </g>
            <g id="Place" transform="translate(44.000000, 252.000000)">
                <g id="card">
                    <use fill="black" fill-opacity="1" filter="url(#filter-11)" xlink:href="#path-10"></use>
                    <use fill="#FFFFFF" fill-rule="evenodd" xlink:href="#path-10"></use>
                </g>
                <circle id="Oval-2" stroke="#979797" stroke-width="0.5" cx="162.5" cy="14.5" r="1.5"></circle>
                <path d="M18.6704102,23 L17.7084961,23 L14.2856445,17.5019531 L14.2563477,17.5117188 L14.2563477,23 L13.2944336,23 L13.2944336,15.890625 L14.2563477,15.890625 L17.6791992,21.3789062 L17.7084961,21.3691406 L17.7084961,15.890625 L18.6704102,15.890625 L18.6704102,23 Z M23.6020508,22.21875 C23.4360343,22.5019545 23.2228203,22.7200513 22.9624023,22.8730469 C22.7019844,23.0260424 22.4008806,23.1025391 22.059082,23.1025391 C21.4829073,23.1025391 21.033693,22.9186216 20.7114258,22.5507812 C20.3891585,22.1829409 20.2280273,21.6100299 20.2280273,20.8320312 L20.2280273,17.7167969 L21.1899414,17.7167969 L21.1899414,20.8417969 C21.1899414,21.4049507 21.2729484,21.7923167 21.4389648,22.0039062 C21.6049813,22.2154958 21.8637678,22.3212891 22.215332,22.3212891 C22.5571306,22.3212891 22.8395171,22.2521166 23.0625,22.1137695 C23.2854829,21.9754225 23.4539382,21.7792981 23.5678711,21.5253906 L23.5678711,17.7167969 L24.5297852,17.7167969 L24.5297852,23 L23.6655273,23 L23.6020508,22.21875 Z M26.7905273,17.7167969 L26.8588867,18.5029297 C27.0346688,18.2229804 27.255207,18.0056974 27.5205078,17.8510742 C27.7858086,17.696451 28.0877262,17.6191406 28.4262695,17.6191406 C28.9959338,17.6191406 29.4370102,17.7859684 29.7495117,18.1196289 C30.0620133,18.4532894 30.2182617,18.968421 30.2182617,19.6650391 L30.2182617,23 L29.2563477,23 L29.2563477,19.6845703 C29.2563477,19.2190732 29.1643889,18.8886729 28.9804688,18.6933594 C28.7965486,18.4980459 28.5157896,18.4003906 28.1381836,18.4003906 C27.8614895,18.4003906 27.6165375,18.4671217 27.4033203,18.6005859 C27.1901031,18.7340501 27.0200202,18.91634 26.8930664,19.1474609 L26.8930664,23 L25.9311523,23 L25.9311523,17.7167969 L26.7905273,17.7167969 Z M34.8618164,23 C34.8292642,22.840494 34.8040365,22.6997076 34.7861328,22.5776367 C34.7682291,22.4555658 34.7576498,22.3326829 34.7543945,22.2089844 C34.5753572,22.4628919 34.3417983,22.6752921 34.0537109,22.8461914 C33.7656236,23.0170907 33.4555681,23.1025391 33.1235352,23.1025391 C32.5734022,23.1025391 32.1542983,22.9617527 31.8662109,22.6801758 C31.5781236,22.3985989 31.434082,22.0104191 31.434082,21.515625 C31.434082,21.0110652 31.6383443,20.6163751 32.046875,20.331543 C32.4554057,20.0467108 33.0095994,19.9042969 33.7094727,19.9042969 L34.7543945,19.9042969 L34.7543945,19.3818359 C34.7543945,19.0725896 34.6599944,18.8276376 34.4711914,18.6469727 C34.2823884,18.4663077 34.015464,18.3759766 33.6704102,18.3759766 C33.3611638,18.3759766 33.1097015,18.4549146 32.9160156,18.612793 C32.7223298,18.7706714 32.6254883,18.9602854 32.6254883,19.1816406 L31.7075195,19.1816406 L31.6977539,19.1523438 C31.6782226,18.7682272 31.8596986,18.4166683 32.2421875,18.0976562 C32.6246764,17.7786442 33.1186493,17.6191406 33.7241211,17.6191406 C34.3230824,17.6191406 34.8048484,17.7713201 35.1694336,18.0756836 C35.5340188,18.3800471 35.7163086,18.818682 35.7163086,19.3916016 L35.7163086,21.9355469 C35.7163086,22.1243499 35.7260741,22.3066397 35.7456055,22.4824219 C35.7651368,22.658204 35.8009438,22.8307283 35.8530273,23 L34.8618164,23 Z M33.2651367,22.296875 C33.6134458,22.296875 33.9275702,22.2073577 34.2075195,22.0283203 C34.4874688,21.849283 34.6697587,21.6442069 34.7543945,21.4130859 L34.7543945,20.5537109 L33.675293,20.5537109 C33.2879212,20.5537109 32.9778657,20.6513662 32.7451172,20.8466797 C32.5123686,21.0419932 32.3959961,21.2714831 32.3959961,21.5351562 C32.3959961,21.7695324 32.4692375,21.9550774 32.6157227,22.0917969 C32.7622078,22.2285163 32.978677,22.296875 33.2651367,22.296875 L33.2651367,22.296875 Z M38.8754883,21.4423828 L38.9584961,21.8134766 L38.987793,21.8134766 L39.0805664,21.4423828 L40.2963867,17.7167969 L41.277832,17.7167969 L39.3344727,23 L38.6069336,23 L36.6391602,17.7167969 L37.6254883,17.7167969 L38.8754883,21.4423828 Z M45.496582,22.21875 C45.3305656,22.5019545 45.1173516,22.7200513 44.8569336,22.8730469 C44.5965156,23.0260424 44.2954119,23.1025391 43.9536133,23.1025391 C43.3774385,23.1025391 42.9282243,22.9186216 42.605957,22.5507812 C42.2836898,22.1829409 42.1225586,21.6100299 42.1225586,20.8320312 L42.1225586,17.7167969 L43.0844727,17.7167969 L43.0844727,20.8417969 C43.0844727,21.4049507 43.1674796,21.7923167 43.3334961,22.0039062 C43.4995125,22.2154958 43.758299,22.3212891 44.1098633,22.3212891 C44.4516619,22.3212891 44.7340484,22.2521166 44.9570312,22.1137695 C45.1800141,21.9754225 45.3484695,21.7792981 45.4624023,21.5253906 L45.4624023,17.7167969 L46.4243164,17.7167969 L46.4243164,23 L45.5600586,23 L45.496582,22.21875 Z M49.0952148,16.4423828 L49.0952148,17.7167969 L50.0961914,17.7167969 L50.0961914,18.4296875 L49.0952148,18.4296875 L49.0952148,21.6376953 C49.0952148,21.8850924 49.1464839,22.0592443 49.2490234,22.1601562 C49.351563,22.2610682 49.4874666,22.3115234 49.6567383,22.3115234 C49.7120771,22.3115234 49.7731116,22.3050131 49.8398438,22.2919922 C49.9065759,22.2789713 49.9659828,22.2626954 50.0180664,22.2431641 L50.1450195,22.9023438 C50.0734046,22.9609378 49.9684252,23.0089516 49.8300781,23.0463867 C49.6917311,23.0838218 49.5525723,23.1025391 49.4125977,23.1025391 C49.0219707,23.1025391 48.7111014,22.9845389 48.4799805,22.7485352 C48.2488595,22.5125314 48.1333008,22.1422551 48.1333008,21.6376953 L48.1333008,18.4296875 L47.293457,18.4296875 L47.293457,17.7167969 L48.1333008,17.7167969 L48.1333008,16.4423828 L49.0952148,16.4423828 Z" id="Nunavut" fill="#949494"></path>
                <path d="M148.582031,27 L139.753906,27 L139.753906,26.1015625 L144.412109,20.8183594 C145.271489,19.8483024 145.878579,19.0361361 146.233398,18.3818359 C146.588218,17.7275358 146.765625,17.1009145 146.765625,16.5019531 C146.765625,15.616532 146.516604,14.9069037 146.018555,14.3730469 C145.520505,13.83919 144.81576,13.5722656 143.904297,13.5722656 C142.823562,13.5722656 142.003258,13.8717418 141.443359,14.4707031 C140.883461,15.0696645 140.603516,15.8704377 140.603516,16.8730469 L139.519531,16.8730469 L139.5,16.8144531 C139.467448,15.6295514 139.851558,14.6269572 140.652344,13.8066406 C141.453129,12.986324 142.537103,12.5761719 143.904297,12.5761719 C145.128261,12.5761719 146.108069,12.9277309 146.84375,13.6308594 C147.579431,14.3339879 147.947266,15.2779889 147.947266,16.4628906 C147.947266,17.2441445 147.7015,18.0367798 147.209961,18.8408203 C146.718422,19.6448608 146.033208,20.5416617 145.154297,21.53125 L141.238281,25.9648438 L141.257812,26.0136719 L148.582031,26.0136719 L148.582031,27 Z M151.345703,20.5644531 L152.136719,12.78125 L159.041016,12.78125 L159.041016,13.8652344 L153.132812,13.8652344 L152.605469,18.9335938 C152.963543,18.6080713 153.35742,18.3574228 153.787109,18.1816406 C154.216799,18.0058585 154.799475,17.9082032 155.535156,17.8886719 C156.7461,17.8691405 157.722653,18.2760375 158.464844,19.109375 C159.207035,19.9427125 159.578125,21.062493 159.578125,22.46875 C159.578125,23.9075593 159.218428,25.0566363 158.499023,25.9160156 C157.779619,26.7753949 156.697273,27.2050781 155.251953,27.2050781 C154.080072,27.2050781 153.10352,26.877933 152.322266,26.2236328 C151.541012,25.5693327 151.166667,24.6009179 151.199219,23.3183594 L151.21875,23.2597656 L152.263672,23.2597656 C152.263672,24.2168017 152.535479,24.9492162 153.079102,25.4570312 C153.622724,25.9648463 154.347001,26.21875 155.251953,26.21875 C156.306646,26.21875 157.096026,25.8997428 157.620117,25.2617188 C158.144208,24.6236947 158.40625,23.6992248 158.40625,22.4882812 C158.40625,21.427078 158.144208,20.5758496 157.620117,19.9345703 C157.096026,19.2932911 156.361984,18.9726562 155.417969,18.9726562 C154.506506,18.9726562 153.811526,19.1175116 153.333008,19.4072266 C152.85449,19.6969416 152.507814,20.1347627 152.292969,20.7207031 L151.345703,20.5644531 Z" id="25" fill="#949494"></path>
            </g>
            <g id="Place" transform="translate(44.000000, 297.000000)">
                <g id="card">
                    <use fill="black" fill-opacity="1" filter="url(#filter-13)" xlink:href="#path-12"></use>
                    <use fill="#FFFFFF" fill-rule="evenodd" xlink:href="#path-12"></use>
                </g>
                <circle id="Oval-2" stroke="#979797" stroke-width="0.5" cx="162.5" cy="14.5" r="1.5"></circle>
                <path d="M12.953125,23 L12.953125,15.890625 L15.1357422,15.890625 C16.0667364,15.890625 16.8137993,16.1762667 17.3769531,16.7475586 C17.940107,17.3188505 18.2216797,18.0569616 18.2216797,18.9619141 L18.2216797,19.9335938 C18.2216797,20.8418014 17.940107,21.5799125 17.3769531,22.1479492 C16.8137993,22.7159859 16.0667364,23 15.1357422,23 L12.953125,23 Z M13.9150391,16.6474609 L13.9150391,22.2480469 L15.1357422,22.2480469 C15.7932976,22.2480469 16.3116843,22.0315777 16.690918,21.5986328 C17.0701516,21.1656879 17.2597656,20.6106805 17.2597656,19.9335938 L17.2597656,18.9521484 C17.2597656,18.2815722 17.0701516,17.7298199 16.690918,17.296875 C16.3116843,16.8639301 15.7932976,16.6474609 15.1357422,16.6474609 L13.9150391,16.6474609 Z M22.6064453,23 C22.5738931,22.840494 22.5486655,22.6997076 22.5307617,22.5776367 C22.512858,22.4555658 22.5022787,22.3326829 22.4990234,22.2089844 C22.3199861,22.4628919 22.0864272,22.6752921 21.7983398,22.8461914 C21.5102525,23.0170907 21.200197,23.1025391 20.8681641,23.1025391 C20.3180311,23.1025391 19.8989272,22.9617527 19.6108398,22.6801758 C19.3227525,22.3985989 19.1787109,22.0104191 19.1787109,21.515625 C19.1787109,21.0110652 19.3829732,20.6163751 19.7915039,20.331543 C20.2000346,20.0467108 20.7542283,19.9042969 21.4541016,19.9042969 L22.4990234,19.9042969 L22.4990234,19.3818359 C22.4990234,19.0725896 22.4046233,18.8276376 22.2158203,18.6469727 C22.0270173,18.4663077 21.7600929,18.3759766 21.4150391,18.3759766 C21.1057927,18.3759766 20.8543304,18.4549146 20.6606445,18.612793 C20.4669587,18.7706714 20.3701172,18.9602854 20.3701172,19.1816406 L19.4521484,19.1816406 L19.4423828,19.1523438 C19.4228515,18.7682272 19.6043275,18.4166683 19.9868164,18.0976562 C20.3693053,17.7786442 20.8632782,17.6191406 21.46875,17.6191406 C22.0677113,17.6191406 22.5494773,17.7713201 22.9140625,18.0756836 C23.2786477,18.3800471 23.4609375,18.818682 23.4609375,19.3916016 L23.4609375,21.9355469 C23.4609375,22.1243499 23.470703,22.3066397 23.4902344,22.4824219 C23.5097657,22.658204 23.5455727,22.8307283 23.5976562,23 L22.6064453,23 Z M21.0097656,22.296875 C21.3580747,22.296875 21.6721991,22.2073577 21.9521484,22.0283203 C22.2320978,21.849283 22.4143876,21.6442069 22.4990234,21.4130859 L22.4990234,20.5537109 L21.4199219,20.5537109 C21.0325501,20.5537109 20.7224947,20.6513662 20.4897461,20.8466797 C20.2569975,21.0419932 20.140625,21.2714831 20.140625,21.5351562 C20.140625,21.7695324 20.2138665,21.9550774 20.3603516,22.0917969 C20.5068367,22.2285163 20.7233059,22.296875 21.0097656,22.296875 L21.0097656,22.296875 Z M25.8974609,23 L24.9355469,23 L24.9355469,15.3828125 L25.8974609,15.3828125 L25.8974609,23 Z M28.4169922,23 L27.4550781,23 L27.4550781,15.3828125 L28.4169922,15.3828125 L28.4169922,23 Z M33.1435547,23 C33.1110024,22.840494 33.0857748,22.6997076 33.0678711,22.5776367 C33.0499674,22.4555658 33.039388,22.3326829 33.0361328,22.2089844 C32.8570955,22.4628919 32.6235366,22.6752921 32.3354492,22.8461914 C32.0473618,23.0170907 31.7373063,23.1025391 31.4052734,23.1025391 C30.8551405,23.1025391 30.4360366,22.9617527 30.1479492,22.6801758 C29.8598618,22.3985989 29.7158203,22.0104191 29.7158203,21.515625 C29.7158203,21.0110652 29.9200826,20.6163751 30.3286133,20.331543 C30.737144,20.0467108 31.2913376,19.9042969 31.9912109,19.9042969 L33.0361328,19.9042969 L33.0361328,19.3818359 C33.0361328,19.0725896 32.9417327,18.8276376 32.7529297,18.6469727 C32.5641267,18.4663077 32.2972022,18.3759766 31.9521484,18.3759766 C31.6429021,18.3759766 31.3914398,18.4549146 31.1977539,18.612793 C31.004068,18.7706714 30.9072266,18.9602854 30.9072266,19.1816406 L29.9892578,19.1816406 L29.9794922,19.1523438 C29.9599608,18.7682272 30.1414369,18.4166683 30.5239258,18.0976562 C30.9064147,17.7786442 31.4003876,17.6191406 32.0058594,17.6191406 C32.6048207,17.6191406 33.0865867,17.7713201 33.4511719,18.0756836 C33.815757,18.3800471 33.9980469,18.818682 33.9980469,19.3916016 L33.9980469,21.9355469 C33.9980469,22.1243499 34.0078124,22.3066397 34.0273438,22.4824219 C34.0468751,22.658204 34.082682,22.8307283 34.1347656,23 L33.1435547,23 Z M31.546875,22.296875 C31.895184,22.296875 32.2093085,22.2073577 32.4892578,22.0283203 C32.7692071,21.849283 32.951497,21.6442069 33.0361328,21.4130859 L33.0361328,20.5537109 L31.9570312,20.5537109 C31.5696595,20.5537109 31.259604,20.6513662 31.0268555,20.8466797 C30.7941069,21.0419932 30.6777344,21.2714831 30.6777344,21.5351562 C30.6777344,21.7695324 30.7509758,21.9550774 30.8974609,22.0917969 C31.043946,22.2285163 31.2604152,22.296875 31.546875,22.296875 L31.546875,22.296875 Z M38.4658203,21.5986328 C38.4658203,21.3870432 38.3852547,21.2128913 38.2241211,21.0761719 C38.0629875,20.9394524 37.7578147,20.8206385 37.3085938,20.7197266 C36.6673145,20.5797519 36.1847347,20.3901379 35.8608398,20.1508789 C35.536945,19.9116199 35.375,19.5852885 35.375,19.171875 C35.375,18.7421854 35.5572898,18.3759781 35.921875,18.0732422 C36.2864602,17.7705063 36.7617158,17.6191406 37.3476562,17.6191406 C37.9628937,17.6191406 38.4519839,17.7770167 38.8149414,18.0927734 C39.177899,18.4085302 39.3512371,18.792641 39.3349609,19.2451172 L39.3251953,19.2744141 L38.4072266,19.2744141 C38.4072266,19.0432931 38.3103851,18.8357757 38.1166992,18.6518555 C37.9230134,18.4679353 37.6666683,18.3759766 37.3476562,18.3759766 C37.0058577,18.3759766 36.751954,18.4508456 36.5859375,18.6005859 C36.419921,18.7503263 36.3369141,18.9309885 36.3369141,19.1425781 C36.3369141,19.3509125 36.4101555,19.5152989 36.5566406,19.6357422 C36.7031257,19.7561855 37.0009743,19.8636063 37.4501953,19.9580078 C38.1175164,20.1012377 38.6139307,20.2957344 38.9394531,20.5415039 C39.2649756,20.7872734 39.4277344,21.1168599 39.4277344,21.5302734 C39.4277344,21.9990258 39.2381204,22.3782538 38.8588867,22.6679688 C38.4796531,22.9576837 37.9840525,23.1025391 37.3720703,23.1025391 C36.6982388,23.1025391 36.1676452,22.9316423 35.7802734,22.5898438 C35.3929017,22.2480452 35.2089843,21.8492861 35.2285156,21.3935547 L35.2382812,21.3642578 L36.15625,21.3642578 C36.1725261,21.7060564 36.299478,21.9558911 36.5371094,22.1137695 C36.7747408,22.2716479 37.0530583,22.3505859 37.3720703,22.3505859 C37.7138689,22.3505859 37.9816071,22.2814135 38.175293,22.1430664 C38.3689788,22.0047194 38.4658203,21.8232433 38.4658203,21.5986328 L38.4658203,21.5986328 Z" id="Dallas" fill="#949494"></path>
                <path d="M148.494141,13.7773438 C146.957675,15.6002695 145.782556,17.450837 144.96875,19.3291016 C144.154944,21.2073662 143.611329,23.3671753 143.337891,25.8085938 L143.230469,27 L142.058594,27 L142.166016,25.8085938 C142.439454,23.3997275 143.005855,21.2203874 143.865234,19.2705078 C144.724614,17.3206283 145.863925,15.4895919 147.283203,13.7773438 L139.167969,13.7773438 L139.167969,12.78125 L148.494141,12.78125 L148.494141,13.7773438 Z M151.345703,20.5644531 L152.136719,12.78125 L159.041016,12.78125 L159.041016,13.8652344 L153.132812,13.8652344 L152.605469,18.9335938 C152.963543,18.6080713 153.35742,18.3574228 153.787109,18.1816406 C154.216799,18.0058585 154.799475,17.9082032 155.535156,17.8886719 C156.7461,17.8691405 157.722653,18.2760375 158.464844,19.109375 C159.207035,19.9427125 159.578125,21.062493 159.578125,22.46875 C159.578125,23.9075593 159.218428,25.0566363 158.499023,25.9160156 C157.779619,26.7753949 156.697273,27.2050781 155.251953,27.2050781 C154.080072,27.2050781 153.10352,26.877933 152.322266,26.2236328 C151.541012,25.5693327 151.166667,24.6009179 151.199219,23.3183594 L151.21875,23.2597656 L152.263672,23.2597656 C152.263672,24.2168017 152.535479,24.9492162 153.079102,25.4570312 C153.622724,25.9648463 154.347001,26.21875 155.251953,26.21875 C156.306646,26.21875 157.096026,25.8997428 157.620117,25.2617188 C158.144208,24.6236947 158.40625,23.6992248 158.40625,22.4882812 C158.40625,21.427078 158.144208,20.5758496 157.620117,19.9345703 C157.096026,19.2932911 156.361984,18.9726562 155.417969,18.9726562 C154.506506,18.9726562 153.811526,19.1175116 153.333008,19.4072266 C152.85449,19.6969416 152.507814,20.1347627 152.292969,20.7207031 L151.345703,20.5644531 Z" id="75" fill="#949494"></path>
            </g>
            <g id="Fab" transform="translate(175.000000, 281.000000)">
                <g id="Oval-1">
                    <use fill="black" fill-opacity="1" filter="url(#filter-15)" xlink:href="#path-14"></use>
                    <use fill="#EC407A" fill-rule="evenodd" xlink:href="#path-14"></use>
                </g>
                <polygon id="+" fill="#FFFFFF" points="23 18.765625 29.234375 18.765625 29.234375 21.546875 23 21.546875 23 28.71875 19.921875 28.71875 19.921875 21.546875 13.640625 21.546875 13.640625 18.765625 19.921875 18.765625 19.921875 12.15625 23 12.15625"></polygon>
            </g>
            <g id="degree" transform="translate(191.000000, 72.000000)">
                <circle id="Oval-7" stroke="#FFFFFF" stroke-width="0.5" cx="17.5" cy="1" r="1"></circle>
                <circle id="Oval-7" stroke="#FFFFFF" stroke-width="0.5" opacity="0.5" cx="1" cy="1" r="1"></circle>
                <path d="M9.26757812,6.33398438 L9.27929688,6.36914062 C9.20507775,7.22461365 8.9003933,7.89745849 8.36523438,8.38769531 C7.83007545,8.87793214 7.11328574,9.12304688 6.21484375,9.12304688 C5.26562025,9.12304688 4.50000291,8.78027687 3.91796875,8.09472656 C3.33593459,7.40917626 3.04492188,6.52148982 3.04492188,5.43164062 L3.04492188,4.04296875 C3.04492188,2.95702582 3.33593459,2.06933938 3.91796875,1.37988281 C4.50000291,0.69042624 5.26562025,0.345703125 6.21484375,0.345703125 C7.12109828,0.345703125 7.83984109,0.585935098 8.37109375,1.06640625 C8.90234641,1.5468774 9.20507775,2.22265189 9.27929688,3.09375 L9.26757812,3.12890625 L8.61132812,3.12890625 C8.51757766,2.42187146 8.27441603,1.88086125 7.88183594,1.50585938 C7.48925585,1.1308575 6.93359734,0.943359375 6.21484375,0.943359375 C5.46874627,0.943359375 4.87011944,1.23241898 4.41894531,1.81054688 C3.96777118,2.38867477 3.7421875,3.12890174 3.7421875,4.03125 L3.7421875,5.43164062 C3.7421875,6.3457077 3.96777118,7.09081743 4.41894531,7.66699219 C4.87011944,8.24316694 5.46874627,8.53125 6.21484375,8.53125 C6.93359734,8.53125 7.4902324,8.34765809 7.88476562,7.98046875 C8.27929885,7.61327941 8.52148393,7.06445678 8.61132812,6.33398438 L9.26757812,6.33398438 Z M10.7792969,9.73242188 L10.140625,9.73242188 L13.703125,0.46875 L14.3359375,0.46875 L10.7792969,9.73242188 Z" id="C/-" fill="#FFFFFF" opacity="0.5"></path>
                <polygon id="F" fill="#FFFFFF" points="25.0048828 5.00390625 20.8564453 5.00390625 20.8564453 9 20.1591797 9 20.1591797 0.46875 25.6025391 0.46875 25.6025391 1.06640625 20.8564453 1.06640625 20.8564453 4.40039062 25.0048828 4.40039062"></polygon>
            </g>
        </g>
    </g>
</svg>